<?xml version="1.0" encoding="UTF-8"?>
<svg id="Capa_1" data-name="Capa 1" xmlns="http://www.w3.org/2000/svg" viewBox="0 0 1080 1080">
  <defs>
    <style>
      .cls-1 {
        fill: #000;
      }

      .cls-1, .cls-2 {
        stroke-width: 0px;
      }

      .cls-2 {
        fill: #fff;
      }
    </style>
  </defs>
  <path class="cls-1" d="M1005.06,646.51c-4.74-26.39-27.91-66.64-27.91-66.64,0-26.05-10.75-43.7-16.13-65.55-3.04-12.36-3.27-24.52-5.74-37-2.31-11.66,11.53-22.38,8.35-33.83-1.49-5.35-6.07-10.28-8.46-15.29-3.03-6.33-6.21-12.58-8.99-19.03-5.14-11.94-9.45-24.84-12.23-37.14-1.62-7.15-3.75-14.3-7.74-20.45-7.33-11.28-20.08-17.88-32.91-21.94-12.83-4.05-26.86-5.76-39.44-10.5,7.45-7.95,12.02-18.56,12.66-29.43.19-3.16.08-6.45,1.36-9.35,1.18-2.68,3.43-4.72,5.04-7.17,4.1-6.2,3.75-14.51,1-21.42-2.74-6.91-7.57-12.75-12.21-18.55-18.41-22.98-35.31-47.33-56.2-68.07-20.9-20.74-46.6-38.01-75.65-42.81-11.07-1.83-22.36-1.81-33.57-1.53-15.13.38-30.4,1.24-44.98,5.31-14.58,4.07-31.39,10.2-40.89,21.99-12.88.2-25.24-4.58-37.8-7.41-10.71-2.41-21.67-3.42-32.6-4.42-10.93,1-21.9,2-32.6,4.42-12.57,2.83-24.92,7.62-37.8,7.41-9.5-11.79-26.31-17.92-40.89-21.99-14.58-4.07-29.85-4.93-44.98-5.31-11.22-.28-22.5-.3-33.57,1.53-29.05,4.8-54.75,22.06-75.65,42.81-20.9,20.74-37.79,45.09-56.2,68.07-4.65,5.8-9.47,11.64-12.21,18.55-2.74,6.91-3.1,15.22,1,21.42,1.61,2.44,3.86,4.49,5.04,7.17,1.28,2.9,1.17,6.19,1.36,9.35.64,10.88,5.21,21.48,12.66,29.43-12.59,4.75-26.62,6.45-39.44,10.5-12.83,4.05-25.58,10.65-32.91,21.94-3.99,6.14-6.12,13.3-7.74,20.45-2.79,12.3-7.09,25.21-12.23,37.14-2.78,6.45-5.97,12.7-8.99,19.03-2.39,5.01-6.98,9.93-8.46,15.29-3.18,11.45,10.66,22.18,8.35,33.83-2.47,12.48-2.7,24.65-5.74,37-5.38,21.85-16.13,39.51-16.13,65.55,0,0-23.18,40.26-27.91,66.64-4.74,26.39,0,47.36,3.38,54.13,3.38,6.77,11.5,8.12,12.86-6.77,1.35-14.88,9.47-37.21,18.27-52.77,0,0,8.8,41.95,15.56,57.51,6.77,15.56,24.36,62.25,33.15,81.87,8.8,19.62,18.94,41.95,19.62,56.16.68,14.21-6.43,28.42-9.81,28.42s-3.72-5.75-2.71-9.47c1.01-3.72-6.43-10.49-14.21-5.75-7.78,4.74-9.81,17.25-6.43,28.42,3.38,11.16,15.9,19.28,37.55,16.24,21.65-3.04,38.23-28.08,38.57-56.16.34-28.08-10.49-62.58-19.96-100.81-9.47-38.23.68-90.32.68-90.32,0,0,20.97-23.34,20.97-60.22,9.41-1.26,18.76-4.35,27.79-7.28,2.06,59.5,18.65,116.87,49.73,167.65-11.94,29.21-22.32,59.76-17.48,90.94,1.41,9.11,4.22,18.35,2.34,27.37-2,9.6-8.94,17.25-14.14,25.56-2.11,3.36-3.98,6.97-4.62,10.89-.64,3.92.1,8.21,2.71,11.2,4.34,4.97,11.97,4.83,18.54,4.29,1.77,4.42,5.91,5.81,10.6,6.6,5.52.93,11.67.67,16.03-2.84,8.78,4.54,19.18,5.5,28.58,2.46,9.4-3.04,17.4-10.66,20.09-20.17,3.29-11.61-1.28-23.78-3.96-35.55-2.48-10.9-3.34-22.1-4.19-33.25-.28-3.66-.55-7.42.45-10.95,1.43-5.04,5.23-8.97,8.29-13.22,4.11-5.7,6.98-12.2,9.3-18.84,1.35-3.85,2.54-7.81,4.66-11.3,1.86-3.04,4.36-5.62,6.85-8.17,8.42-8.64,16.83-17.27,25.25-25.91,4.35,10.71,12.2,19.58,17.45,29.88,6.57,12.87,9.69,27.47,8.95,41.9-.83,16.28-6.46,32.37-4.56,48.56.2,1.67-.43,2.33-1.39,3.71-4.25,6.1-8.49,12.21-12.74,18.31-1.23,1.76-2.47,3.55-3.17,5.58-.46,1.34-.68,2.75-.75,4.17-.14,2.56.18,5.14.94,7.59,5.68,4.79,14.79,5.14,21.04,1.12,1,1,1.56,1.06,2.68,1.92,3.92,3.02,9.07,4.14,14,3.86,4.94-.28,9.71-1.86,14.26-3.81,2.34,1.15,2.91,3.11,5,4.67,2.09,1.56,4.66,2.82,7.22,2.35-.4,5-.12,8.89.58,13.87.7,4.97,2.61,9.93,6.21,13.42,8.46,8.2,21.31,10.87,32.9,8.8,2.8,3.16,6.39,5.24,10.53,6.08,2.15.43,4.35.5,6.55.57,3.23.1,6.45.2,9.68.3,6.06.19,12.67.2,17.46-3.52,6.08,1.66,11.63.74,17.87-.24,3.08-.49,6.11-1.29,9.12-2.1,7.12-1.9,14.87-4.24,18.95-10.38,3.85-5.81,3.78-14.85,3.67-21.82-.05-3.07-.39-6.11-.91-9.14.9-1.07,1.68-2.13,3.17-2.86,4.55,1.94,9.32,3.53,14.26,3.81,4.94.28,10.08-.84,14-3.86,1.12-.86,1.68-.92,2.68-1.92,6.25,4.02,15.37,3.67,21.04-1.12.76-2.45,1.08-5.03.94-7.59-.08-1.41-.29-2.83-.75-4.17-.7-2.03-1.94-3.82-3.17-5.58-4.25-6.1-8.49-12.21-12.74-18.31-.96-1.38-1.58-2.04-1.39-3.71,1.9-16.19-3.72-32.28-4.56-48.56-.74-14.43,2.38-29.03,8.95-41.9,5.26-10.3,13.11-19.17,17.45-29.88,8.42,8.64,16.83,17.27,25.25,25.91,2.49,2.55,5,5.13,6.85,8.17,2.13,3.49,3.32,7.44,4.66,11.3,2.32,6.63,5.2,13.13,9.3,18.84,3.06,4.25,6.86,8.19,8.29,13.22,1,3.53.73,7.29.45,10.95-.85,11.15-1.71,22.35-4.19,33.25-2.68,11.77-7.25,23.93-3.96,35.55,2.69,9.51,10.69,17.14,20.09,20.17,9.4,3.04,19.8,2.08,28.58-2.46,4.36,3.51,10.51,3.77,16.03,2.84,4.69-.79,8.83-2.18,10.6-6.6,6.57.54,14.2.67,18.54-4.29,2.61-2.99,3.35-7.28,2.71-11.2-.64-3.92-2.51-7.52-4.62-10.89-5.2-8.31-12.14-15.97-14.14-25.56-1.88-9.02.92-18.26,2.34-27.37,4.84-31.18-5.55-61.73-17.48-90.94,31.09-50.78,47.67-108.14,49.74-167.65,9.03,2.93,18.38,6.02,27.79,7.28,0,36.87,20.97,60.22,20.97,60.22,0,0,10.15,52.1.68,90.32-9.47,38.23-20.3,72.73-19.96,100.81.34,28.08,16.91,53.11,38.57,56.16,21.65,3.04,34.17-5.07,37.55-16.24,3.38-11.16,1.35-23.68-6.43-28.42-7.78-4.74-15.22,2.03-14.21,5.75,1.01,3.72.68,9.47-2.71,9.47s-10.49-14.21-9.81-28.42c.68-14.21,10.83-36.54,19.62-56.16,8.8-19.62,26.39-66.31,33.15-81.87,6.77-15.56,15.56-57.51,15.56-57.51,8.8,15.56,16.91,37.89,18.27,52.77,1.35,14.88,9.47,13.53,12.86,6.77,3.38-6.77,8.12-27.74,3.38-54.13Z"/>
  <path class="cls-2" d="M444.35,318.02c5.41-12.18,21.93-10.83,21.93,6.43-6.37-7.22-14.48-10.15-21.93-6.43ZM448.07,323.27c.68,14.38,13.87,15.73,16.41,6.79-5.92,3.03-12.48,1.73-16.41-6.79ZM436.07,315.49c.79,23.99,19.25,32.48,30.22,29.6-12.66-4.11-20.4-10.66-21.93-20.64-5.26-2.45-7.32-5.59-8.29-8.96ZM448.64,351.38c8.35,5.49,14.27,3.09,17.64,1.66-12.36-1.04-20.61-6.88-27-14.88-.98,16.76,19.97,32.17,28.42,22.67-7.25-.66-14,.09-19.06-9.44ZM466.01,388.07c-2.08,8.83-6.09,17.08-10.18,25.13-3.72,7.32-7.56,14.68-9.5,22.66-1.71,7.03-1.88,14.33-1.96,21.57,7.54-4.2,17.51-.14,22.75,6.72s6.91,15.7,8.43,24.19c2.63-8.32,1.55-17.73-2.89-25.24s-12.19-12.98-20.75-14.66c5.11-1.07,10.53.15,15.11,2.67,4.58,2.51,8.39,6.25,11.67,10.31-3.06-11.26-14.34-19.71-26-19.49,10.07-2.99,21.8.78,28.24,9.08-2.1-5.56-5.36-10.81-10.09-14.4-4.73-3.59-11.05-5.34-16.78-3.76,3.89-3.29,9.69-3.54,14.47-1.78,4.78,1.76,8.72,5.23,12.28,8.87-1.43-4.65-4.1-8.92-7.65-12.25-4.28-4.01-10.69-6.65-16.02-4.22,3.1-2.45,7.51-2.67,11.29-1.55,3.79,1.12,7.11,3.4,10.36,5.65-1.75-5.7-2.88-11.6-3.36-17.55-.33-4.07-.35-8.17-1.05-12.19-1.56-8.93-3.89-16.1-3.51-25.17-3.72,3.78-3.73,10.58-4.87,15.44ZM312.74,379.77c5.95.11,9.98-7.36,15.94-7.26-3.67,3.84-6.79,8.2-9.24,12.9,5.17,3.06,12.05.97,16.61-2.95,4.56-3.92,7.51-9.32,11.11-14.13,15.75-20.99,44.2-30.87,56.49-54.05-12.45,10.44-25.54,20.13-39.16,28.99,7.83-15.16,25.62-22.6,35.28-36.67-21.53,13.42-43.73,27.48-57.77,48.61,4.65-16.58,19.48-27.93,33.41-38.05-15.05,5.86-28.84,14.94-40.18,26.44,4.51-12.83,16.73-21.27,28.98-27.16,12.25-5.89,25.51-10.31,35.88-19.1-9.56,3.53-19.12,7.07-28.69,10.6-6.11,2.26-12.24,4.52-18.08,7.4-8.88,4.37-17.05,10.16-24.14,17.07,18.26-23.26,46.84-35.47,74.17-46.75-34.63,7.16-68.37,23.57-90.56,51.1,5.27-12.93,16.76-22.14,28.05-30.35,14.13-10.28,28.96-20.08,45.62-25.34-31.96,6.38-61.86,22.74-84.45,46.22,0-4.76,10.66-14.58,13.77-17.98,5.29-5.78,11.08-11.09,17.23-15.94,12.45-9.82,26.35-17.73,40.86-24.06,8.31-3.62,16.85-6.48,25.43-9.38-18.58.22-35.24,5-51.32,14.48-13.06,7.7-24.82,17.38-36.52,27.01-15.04,12.39-30.63,25.5-38.15,43.47-1.1,2.63-2.02,5.62-1.01,8.29.67,1.78,2.1,3.14,3.49,4.44,3.98,3.73,7.99,7.48,12.47,10.6,6,4.17,12.73,7.13,19.42,10.07,1.62.71,3.29,1.43,5.06,1.46ZM403.67,452.69c2.08,1.31,4.29,2.56,6.73,2.89,4.76.64,9.37-2.45,12.05-6.43,2.68-3.98,3.86-8.75,5.22-13.35,3.19-10.85,7.61-21.34,13.13-31.21-6.02,4-8.5,11.43-11.4,18.04-3.93,8.96-9.29,17.29-15.83,24.56,9.47-21.59,13.59-37.62,24.16-54.57-8.9,6.8-13.82,17.47-18.4,27.7-3.42,7.63-6.84,15.27-10.25,22.9-.97-8.98.52-18.21,4.26-26.43,6.26-13.72,18.5-24.39,22.97-38.8-14.45,17.2-27.92,35.23-40.33,53.96,1.42-12.27,9.01-22.87,16.8-32.46,7.79-9.59,16.25-19.15,20.01-30.92-12.93,20.14-34.5,33.9-45.92,54.93,2.92-9.41,7.1-18.51,13.11-26.32,10.2-13.24,25.94-23.41,29.66-39.71-8.82,13.14-19.92,24.73-32.66,34.11,9.82-10.98,17.83-23.57,23.62-37.12-11.95,15.21-25.13,29.46-39.37,42.56,8.14-17.78,23.37-31.33,33.19-48.25-14.61,13.76-28.19,28.6-40.61,44.36,3.63-16.52,17.42-28.47,28.06-41.62-10.11,6.19-21.49,14.04-41.57,41.76,5.26-15.37,14.46-27.33,25.49-37.94,8.57-8.25,19.24-14.44,26.15-24.12-24.47,17.79-49.8,36.55-63.7,63.41,1.35-15.95,13.42-28.8,25.86-38.88,7.21-5.84,14.8-11.27,21.56-17.65,4.6-4.35,13.27-17.5,13.27-17.5,0,0-10.29,9.02-15.1,12.87-9.7,7.75-19.79,14.81-28.8,23.42-11.46,10.96-21.47,23.74-27.39,38.45-.45,1.11-.87,2.32-.55,3.47.29,1.05,1.15,1.84,2.04,2.46,3.48,2.47,7.79,3.38,11.75,4.95,15.13,6.02,24.25,21.07,35.66,32.68,5.16,5.24,10.93,9.88,17.15,13.79ZM250.9,232.5c-4,7.48-8.01,14.96-12.01,22.44,23.27-28.97,54.45-51.53,89.26-64.56-9.56-1.92-18.99,3.14-27.43,8.02-14.38,8.32-28.9,16.74-41.05,28.08,3.72-4.03,7.44-8.06,11.16-12.09,2.84-3.08,5.87-6.63,5.7-10.81,1.79,1.95,5.36-.28,5.5-2.92.14-2.64-1.73-4.92-3.48-6.89,3.52,2.61,7.96,3.97,12.34,3.78-4.16-2.47-6.87-7.2-6.89-12.03,3.67,4.69,9.17,7.9,15.05,8.78-5.55-5.64-9.26-13.06-10.44-20.89,3.42,5.06,7.89,9.4,13.05,12.67-3.95-4.88-6.06-11.21-5.81-17.48,3.77,7.07,9.66,13,16.71,16.81-5.15-6.07-8.89-13.31-10.86-21.02,4.35,6.96,10.75,12.62,18.18,16.09-5.97-4.91-10.01-12.09-11.12-19.74,4.68,8.21,11.63,15.11,19.86,19.74-6.45-7.39-10.62-16.73-11.82-26.46,6,11.63,16.58,20.82,28.93,25.14-9.35-7.23-15.92-17.97-18.11-29.59,4.86,8.19,11.59,15.27,19.54,20.52-4.5-8.02-7.06-17.13-7.4-26.32,3.91,9.26,9.82,17.68,17.22,24.49-3.63-8.54-4.35-18.29-2.04-27.27,3.94,8.21,9.18,15.79,15.47,22.37-3.13-7.57-3.46-16.27-.89-24.06,2.14,8.8,5.41,17.32,9.71,25.29-.55-8.79,1.67-17.74,6.26-25.26-1.58,10.08-.87,20.52,2.08,30.29,1.44-10.56,6.18-20.65,13.39-28.5-4.78,11.86-5.75,25.22-2.73,37.65.97-13.47,6.83-26.54,16.24-36.23-3.59,12.75-5.63,25.94-6.04,39.18,2.2-13.42,9.73-25.89,20.57-34.1-7.33,14.93-14.84,30.71-13.9,47.32,6.26-13.75,14.34-26.68,23.97-38.33-4.92,10.14-8.13,21.1-9.46,32.3,5-14.3,13.83-27.24,25.33-37.11-11.78-10.91-24.92-17.65-40.82-19.94-15.89-2.29-29.54-1.73-41.05-2.48-11.69-.77-29.33,2.6-40.37,6.54-34.31,12.24-62.87,47.02-84.48,74.98-7.46,9.64-15.02,19.18-21.85,29.29-6.01,8.9-11.69,19.84-7.97,29.91,10.83-12.53,21.66-25.06,32.49-37.59ZM321.83,257.84c8.62-5.65,18.63-8.82,28.68-11.08,6.79-1.53,14.02-2.84,19.29-7.39-7.24,2.89-15.31,2.41-23.04,3.36-21.98,2.7-40.69,16.81-57.56,31.16,17.64-23.17,43.65-39.82,72.08-46.14-27.35,1.86-52.04,17.03-73.06,34.62,20.77-24.3,49.97-41.26,81.37-47.26-10.43-1.63-21.19.43-31.02,4.28-9.83,3.85-18.88,9.43-27.78,15.12-8.56,5.47-17.15,11.14-23.99,18.65,10.62-14.46,24.8-26.3,40.92-34.17-18.68,4.18-33.17,18.9-50.94,26.03,10.83-7.74,21.65-15.49,32.48-23.23-21.02,6.69-40.34,18.62-55.74,34.42,10.89-15.53,26.62-27.21,43.69-35.47,17.07-8.26,35.27-16.92,53.78-21.04,0,0-13.22,1.19-25.58,4.71-8.38,2.39-16.91,4.95-24.85,8.49-16.02,7.14-30.73,17.2-43.21,29.52-7.07,6.98-13.42,14.69-18.88,23-3.15,4.8-6.07,9.86-10.33,13.71-2.32,2.1-5.08,3.9-6.52,6.68-1.44,2.78-.74,7.01,2.26,7.9,11.66-17.58,27.87-32.12,46.62-41.79-14.16,11.32-25.48,25.76-35.95,40.56-1.95,2.76-3.97,5.84-3.69,9.2,9.83-9.78,20.49-18.73,31.81-26.72-3.6,6.77-8.59,12.79-14.57,17.59-3.43,2.75-7.21,5.14-10.01,8.53-2.8,3.39-4.48,8.15-2.84,12.23,8.31-10.64,17.89-20.28,28.47-28.67-2.39,6.27-6.36,11.93-11.44,16.31-3.54,3.06-7.65,5.56-10.46,9.3-2.81,3.74-3.94,9.36-.97,12.98,3.2-11.74,17.55-16.37,24.5-26.36-1.9,4.43-4.66,8.5-8.08,11.9-3.37,3.35-7.43,6.15-9.76,10.29-2.32,4.14-2.04,10.34,2.14,12.6,4.23-8.33,10.3-15.72,17.66-21.49-2.14,5.17-6.45,9.06-9.8,13.54-3.34,4.48-5.78,10.5-3.47,15.59,5.68-8.43,12.02-16.42,18.94-23.87-1.19,5.46-5.44,9.62-8.66,14.18-3.22,4.56-5.46,10.91-2.38,15.56,7.87-7.7,12.5-18.12,19.67-26.48,4.29-5.01,9.42-9.21,14.53-13.36,14.88-12.11,29.86-24.11,44.91-36-19.01,9.72-37,21.43-53.58,34.88,18.6-22.87,43.56-41.77,72.47-47.51-20.19-.23-40.37,7.3-55.48,20.7-9.08,8.06-16.66,18.33-27.71,23.36,9.17-9.2,18.33-18.4,27.5-27.6,5.49-5.51,11.03-11.06,17.54-15.32ZM510.55,550.54c-3.01,1.9-5.87,4.12-8.54,6.68,2.48-1.5,5-2.83,7.54-4.01.33-.91.66-1.8,1-2.67ZM560.64,546.57c-.93.99-2.04,1.78-3.33,2.32,6.66,1.79,13.21,4.57,19.52,8.33-4.85-4.61-10.35-8.16-16.19-10.65ZM506.54,562.49c-1.27.98-2.5,2.03-3.7,3.15,1.11-.65,2.22-1.27,3.35-1.86.11-.43.23-.86.35-1.29ZM549.34,552.27c.3,1.18.84,2.6,1.48,4.11,8.6,1.46,17.08,4.55,25.17,9.26-7.66-7.11-16.95-11.57-26.65-13.37ZM557.47,568.27c5.58,1.7,11.07,4.2,16.39,7.48-5.67-5.59-12.3-9.55-19.32-11.86.92,1.65,1.66,2.87,1.93,3.21.32.4.65.79,1,1.17ZM515.96,537.99c-5.34,2.54-10.36,6.01-14.83,10.41,4.24-2.62,8.59-4.79,13.01-6.49.62-1.39,1.24-2.7,1.82-3.92ZM564.19,538.67c-.16.99-.39,1.94-.67,2.84,4.82,1.77,9.57,4.06,14.19,6.89-4.11-4.01-8.67-7.25-13.52-9.73ZM520.14,529.91c.97-1.74,1.92-3.3,2.85-4.72-8.3,2.61-16.14,7.26-22.78,13.97,6.4-4.06,13.04-7.07,19.81-9.03.04-.08.08-.15.12-.22ZM564.66,528.88c.04,1.13.03,2.23,0,3.27,4.75,1.81,9.42,4.15,13.97,7.01-4.24-4.25-8.95-7.68-13.96-10.28ZM533.55,513.67c.74-.52,1.52-1,2.34-1.43-13.3.84-26.38,6.57-36.64,17.22,9.41-6.13,19.35-9.98,29.43-11.56,1.76-1.86,3.4-3.21,4.87-4.23ZM560.47,516.37c1.34,1.51,2.27,3.21,2.9,5,5.52,2,10.96,4.7,16.22,8.09-5.67-5.84-12.18-10.2-19.12-13.09ZM580.59,519.28c-22.9-24.27-59.51-24.39-82.36,0,26.08-17.48,56.25-17.29,82.36,0ZM581.66,508.57c-23.44-25.58-61.09-25.7-84.49,0,26.72-18.42,57.74-18.22,84.49,0ZM582.77,497.29c-24.02-27-62.76-27.13-86.72,0,27.39-19.43,59.31-19.22,86.72,0ZM583.95,485.39c-24.61-28.54-64.52-28.68-89.08,0,28.09-20.53,60.96-20.31,89.08,0ZM493.63,472.82c28.83-21.73,62.71-21.49,91.57,0-25.24-30.21-66.39-30.36-91.57,0ZM492.32,459.53c29.6-23.03,64.57-22.78,94.2,0-25.89-32.04-68.36-32.2-94.2,0ZM490.92,445.45c30.42-24.46,66.53-24.19,96.98,0-26.58-34.04-70.45-34.21-96.98,0ZM489.45,430.5c31.27-26.02,68.62-25.74,99.93,0-27.31-36.23-72.68-36.41-99.93,0ZM487.88,414.61c32.18-27.73,70.85-27.43,103.06,0-28.07-38.65-75.05-38.84-103.06,0ZM486.22,400.78c33.13-29.63,73.23-29.3,106.39,0-28.87-41.31-77.58-41.51-106.39,0ZM484.45,385.81c34.14-31.72,75.77-31.37,109.94,0-29.71-44.25-80.29-44.47-109.94,0ZM482.55,369.57c35.2-34.04,78.49-33.67,113.73,0-30.6-47.52-83.2-47.76-113.73,0ZM480.52,355.03c36.33-36.63,81.41-36.23,117.78,0-31.53-51.17-86.32-51.43-117.78,0ZM478.35,338.94c37.52-39.52,84.56-39.09,122.13,0-32.52-55.26-89.69-55.53-122.13,0ZM504.18,801.69c-4.84,2.64-10.25,4.24-15.75,4.66-7.73.58-16.65-1.99-19.85-9.05,5.19,3.82,11.99,5.36,18.32,4.15,6.33-1.22,12.08-5.17,15.48-10.65-7.05,3.29-14.79,5.63-22.54,4.97-7.75-.67-15.52-4.77-19.04-11.71,7.92,3.92,16.78,6.38,25.58,5.54,8.8-.84,17.49-5.32,22.11-12.85-10.72,6.41-23.95,8.49-36.12,5.69,13.29.32,27.82-2.87,36.08-13.29-8.99,4.68-18.95,7.48-29.05,8.16-4.62.31-9.34.18-13.73-1.28s-8.44-4.38-10.49-8.53c9.11,5.59,20.17,7.91,30.76,6.46,10.59-1.46,20.61-6.68,27.87-14.52-8.91,1.03-16.89,6.02-25.67,7.83-11.57,2.38-24.2-1.25-32.74-9.4,9.63,6.74,22.45,7.62,33.86,4.79,9.73-2.41,19.42-7.99,23.29-17.24-12,7.72-26.71,11.12-40.88,9.46-6.98-.82-14.08-2.98-19.2-7.8,10.83,2.33,21.92,4.65,32.89,3.12,10.97-1.53,21.96-7.74,26.1-18-8.89,6.34-19.2,10.86-30.04,12.19-10.84,1.33-22.2-.67-31.49-6.41,10.49,2.33,21.3,4.22,31.94,2.68,10.63-1.54,21.18-7.04,26.42-16.41-17.05,10.76-39.11,13.18-58.09,6.37,20.28,2.29,42.77-2.56,55.86-18.22-16.79,9.75-37.14,13.22-56.21,9.59,10.06-1.5,20.32-2.01,30.08-4.83s19.29-8.38,24.12-17.32c-15.8,12.2-37.52,16.34-56.71,10.81,3.83-.12,7.67-.3,11.5-.54,8.32-.53,16.75-1.38,24.51-4.41s14.89-8.54,18.22-16.18c-6.28,9.34-18.86,11.61-30.08,12.49-9.39.73-19.09,1.02-27.97-2.13,10.66.61,21.52.75,31.8-2.11s20.05-9.08,25.03-18.52c-9.96,8.5-23.55,11.04-36.48,13.09-7.12,1.13-14.81,2.11-21.18-1.25,10.01-.82,20.12-1.84,29.6-5.17,9.48-3.32,18.4-9.19,23.55-17.81-8.32,5.41-17.37,9.89-27.05,12.07s-20.06,1.97-29.28-1.7c5.3-.66,10.59-1.32,15.89-1.97,14.47-1.8,30.37-4.34,39.76-15.5-16.5,8.98-35.86,12.59-54.49,10.16,17.66-1.54,36.24-4.95,49.5-16.71-16.57,6.23-34.12,12.57-51.57,9.57,17.52-1.29,36.05-5.05,48.57-17.37-16.22,9.86-36.48,12.83-54.85,8.05,15.55-1.2,32.2-2.83,44.15-12.83-10.17,4.5-21.2,7.03-32.31,7.41-3.51.12-7.47-.16-9.81-2.79,7.85-1.43,15.67-3.01,23.45-4.74,5.6-1.24,11.37-2.67,16.38-5.33-.64-.32-1.28-.65-1.91-1-12.04,4.08-25.48,4.72-37.95,2.67,8.24-4.13,16.66-7.89,25.21-11.32-.24-.2-.49-.41-.73-.61-8.64,1.92-17.52,2.75-26.36,2.4,5.91-3.81,12.17-7.09,18.66-9.79-.15-.17-.31-.33-.46-.5-7.39,1.69-14.96,2.58-22.54,2.59,5.81-3.03,11.78-5.74,17.87-8.15-.31-.4-.61-.8-.91-1.2-6.74,1.11-13.55,1.76-20.38,1.9,5.04-3.24,10.27-6.2,15.65-8.85-.11-.18-.23-.37-.34-.55-.27-.44-.52-.9-.78-1.35-5.96,1.26-11.92,2.53-17.88,3.79,4.51-3.74,9.66-6.69,15.15-8.74-.39-.75-.77-1.5-1.14-2.25-5.3.38-10.54,1.62-15.42,3.71,3.32-4.29,7.63-7.78,12.47-10.21-.36-.87-.7-1.74-1.04-2.62-4.53.7-8.97,2.02-13.11,3.97,2.93-3.94,6.77-7.17,11.1-9.47-.47-1.38-.91-2.76-1.33-4.16-4.23.71-8.33,2.21-11.99,4.46,2.5-4.1,6.25-7.36,10.57-9.46-.37-1.39-.72-2.78-1.05-4.17-4.42,1.03-8.5,3.14-12.53,5.24,3.06-4.06,7.04-7.41,11.51-9.84-.4-1.92-.77-3.86-1.1-5.79-4.88.9-9.54,2.98-13.34,6.18,2.47-5.29,7.08-9.41,12.46-11.66-.17-1.19-.33-2.37-.49-3.56-5.57.46-11.02,2.43-15.47,5.82,2.33-6.55,8.02-11.5,14.58-13.72-.07-.74-.15-1.49-.21-2.23-.09-.97-.15-1.95-.23-2.92-.42.01-.85.04-1.27.07-5.93.49-11.57,2.79-16.84,5.57,2.81-4.8,7.93-7.94,13.31-9.32,1.47-.38,2.97-.63,4.48-.79-.06-.98-.13-1.96-.18-2.94-7.12-.17-14.35,2.33-19.53,7.25,2.02-5.73,6.87-10.39,12.68-12.17,2.12-.65,4.35-.91,6.57-.8-.04-.89-.07-1.77-.1-2.66-7.44-2.15-15.87-1.07-22.13,3.54,4.44-7.44,13.29-11.77,21.88-11.43-.01-.53-.03-1.05-.04-1.58-8.71-2.34-18.55-.64-25.7,4.9,3.27-10.09,15.51-16.08,25.54-12.98,0-.29-.01-.58-.02-.88-7.31-5.19-18.74-4-24.46,3.05,1.62-5.95,6.81-10.59,12.73-12.31,3.74-1.08,7.71-1.09,11.53-.28-.01-.54-.03-1.08-.04-1.62-7.26-2.76-15.96-1.91-22.27,2.71,2.15-8.61,4.31-17.21,6.46-25.82-5.25,7.14-8.85,15.49-10.45,24.21-1.45-12.4-1.32-24.92-.54-37.38-4.04-1.6-7.19-2.63-10.82-5.04.38,32.21,8.53,63.76,16.51,94.96,12.06,47.16,23.84,94.42,32.62,142.3,7.17,39.11,12.62,79.51,31.64,114.42,3.9,7.16,12.47,10.46,20.59,11.11s16.69-2.75,21.39-9.41ZM479.49,624.27c5.11,3.09,10.62,5.56,16.36,7.2-17.63-19.11-28.32-44.5-29.66-70.47-1.34-25.82,6.12-52.6-2.15-77.1-8.64,24.61-12.13,51.01-10.2,77.03-7.85-24.38-2.59-50.91,4.1-75.64.93-3.44,1.89-7.05,1.08-10.52-2.91-12.38-10.47-1.53-13.02,3.94-3.57,7.65-5.3,16.07-6.62,24.36-3.54,22.32-4.18,45.46,1.76,67.27,5.94,21.8,19,42.23,38.34,53.93ZM494.23,159.7c12.62-.92,25.16-2.86,37.46-5.81-16.58.47-33.14,1.57-49.64,3.3,3.94-2.37,8.46-3.55,12.9-4.7,14.89-3.84,29.94-7.86,45.05-5.08,15.12-2.78,30.17,1.24,45.06,5.08,4.44,1.15,8.96,2.33,12.9,4.7-16.5-1.73-33.06-2.83-49.64-3.3,12.3,2.95,24.84,4.89,37.46,5.81,4.57.33,9.16.52,13.7,1.2,20.64,3.1,39.97,17.68,45.63,37.77-14.94-20.88-41.04-33.25-66.67-31.6,18.41,2.21,36.31,9.68,50.15,22.02,13.84,12.34,23.42,29.61,25.54,48.03-6.42-15.08-15.47-29.25-27.75-40.12-12.27-10.87-27.93-18.28-44.3-19.13,14.36,2.32,27.21,10.88,36.84,21.78,9.63,10.91,16.34,24.09,21.94,37.52,2.51,6,4.85,12.25,4.89,18.76-3.8-6.58-7.71-13.1-11.71-19.55-10.51-16.96-22.66-34.32-40.9-42.42,20.93,14.36,26.15,37.46,45.1,60.36-11.83-6.68-19.71-18.42-28.03-29.15-8.33-10.73-18.46-21.37-31.77-24.06,12.69,8.19,20.24,22.11,29.67,33.92,6.85,8.55,14.83,16.13,22.78,23.67-11.49-.96-20.76-9.47-28.71-17.83-7.94-8.36-16.22-17.46-27.41-20.27,15.23,11.36,22.95,30.94,38.83,41.36-17.66-8.04-34.02-18.91-48.28-32.07,9.68,18.92,28.65,31.31,48.01,40.07,7.74,3.51,15.81,6.66,22.29,12.15,6.48,5.48,11.19,13.96,9.62,22.3-6.4-8.31-13.12-16.68-22.03-22.2-4.54-2.81-9.53-4.79-14.39-6.99-12.4-5.58-24.16-12.57-34.99-20.79,9.8,13.32,25.04,21.37,39.97,28.48,5.81,2.77,11.74,5.51,16.61,9.71,4.88,4.19,8.66,10.13,8.74,16.56-4.04-4.72-9.14-9.31-15.34-9.56-5.13-.21-10.03,2.76-13.14,6.83-3.12,4.08-4.67,9.15-5.55,14.2-3.42-7.88-2.3-17.55,2.84-24.44-4.47,1.74-7.55,6.03-9.01,10.6-1.45,4.57-1.53,9.44-1.59,14.24-11.25-19.29-35.08-34.26-57.36-34.26s-46.1,14.97-57.35,34.26c-.06-4.8-.14-9.67-1.59-14.24-1.46-4.57-4.54-8.86-9.01-10.6,5.14,6.89,6.26,16.56,2.84,24.44-.88-5.05-2.43-10.12-5.55-14.2-3.11-4.07-8.01-7.04-13.14-6.83-6.2.25-11.3,4.84-15.34,9.56.08-6.43,3.86-12.37,8.73-16.56,4.88-4.2,10.81-6.94,16.62-9.71,14.93-7.11,30.17-15.16,39.97-28.48-10.83,8.22-22.59,15.21-34.99,20.79-4.86,2.2-9.85,4.18-14.39,6.99-8.91,5.52-15.64,13.89-22.03,22.2-1.57-8.34,3.14-16.82,9.62-22.3,6.48-5.49,14.55-8.64,22.29-12.15,19.36-8.76,38.33-21.15,48.01-40.07-14.26,13.16-30.62,24.03-48.28,32.07,15.88-10.42,23.6-30,38.82-41.36-11.18,2.81-19.46,11.91-27.4,20.27-7.95,8.36-17.22,16.87-28.71,17.83,7.95-7.54,15.93-15.12,22.77-23.67,9.44-11.81,16.99-25.73,29.68-33.92-13.31,2.69-23.44,13.33-31.77,24.06-8.32,10.73-16.2,22.47-28.03,29.15,18.95-21.89,24.17-46,45.09-60.36-18.23,8.1-30.38,25.46-40.89,42.42-4,6.45-7.91,12.97-11.71,19.55.04-6.51,2.38-12.76,4.89-18.76,5.6-13.43,12.31-26.61,21.94-37.52,9.63-10.9,22.48-19.46,36.84-21.78-16.37.85-32.03,8.26-44.3,19.13-12.28,10.87-21.33,25.04-27.75,40.12,2.12-18.42,11.7-35.69,25.54-48.03,13.84-12.34,31.74-19.81,50.15-22.02-25.63-1.65-51.73,10.72-66.67,31.6,5.66-20.09,24.99-34.67,45.63-37.77,4.53-.68,9.13-.87,13.7-1.2ZM487.91,294.67c.86-.57,28.54-18.77,52.09-18.77s51.24,18.2,52.1,18.77c-.66-.85-22.21-27.73-52.1-27.73s-51.43,26.88-52.09,27.73ZM613.72,324.45c6.37-7.22,14.48-10.15,21.93-6.43-5.41-12.18-21.93-10.83-21.93,6.43ZM615.52,330.05c2.54,8.95,15.73,7.59,16.41-6.79-3.93,8.51-10.49,9.82-16.41,6.79ZM643.93,315.49c-.97,3.38-3.03,6.52-8.29,8.96-1.52,9.98-9.27,16.53-21.93,20.64,10.96,2.88,29.43-5.61,30.22-29.6ZM612.3,360.82c8.45,9.51,29.39-5.91,28.42-22.67-6.4,8.01-14.65,13.85-27,14.88,3.37,1.44,9.29,3.84,17.64-1.66-5.06,9.53-11.81,8.77-19.06,9.44ZM606.83,427.68c-3.55,3.33-6.22,7.59-7.65,12.25,3.56-3.64,7.5-7.11,12.28-8.87,4.78-1.76,10.58-1.5,14.47,1.78-5.73-1.57-12.05.17-16.78,3.76-4.73,3.59-8,8.84-10.09,14.4,6.44-8.3,18.17-12.07,28.24-9.08-11.66-.22-22.94,8.23-26,19.49,3.28-4.07,7.09-7.8,11.67-10.31,4.58-2.51,10-3.74,15.11-2.67-8.56,1.69-16.3,7.16-20.75,14.66s-5.53,16.92-2.89,25.24c1.52-8.49,3.2-17.34,8.43-24.19s15.22-10.91,22.75-6.72c-.08-7.23-.25-14.54-1.96-21.57-1.94-7.98-5.78-15.34-9.5-22.66-4.09-8.05-8.1-16.3-10.18-25.13-1.14-4.85-1.15-11.65-4.87-15.44.38,9.08-1.94,16.25-3.51,25.17-.7,4.02-.73,8.12-1.05,12.19-.48,5.95-1.6,11.84-3.36,17.55,3.25-2.25,6.57-4.53,10.36-5.65,3.79-1.12,8.19-.89,11.29,1.55-5.34-2.42-11.75.22-16.02,4.22ZM807.69,353.2c1.01-2.67.09-5.66-1.01-8.29-7.53-17.97-23.12-31.08-38.15-43.47-11.7-9.64-23.46-19.32-36.52-27.01-16.08-9.48-32.74-14.26-51.32-14.48,8.58,2.89,17.11,5.75,25.43,9.38,14.52,6.33,28.41,14.24,40.86,24.06,6.15,4.85,11.95,10.16,17.23,15.94,3.1,3.39,13.77,13.21,13.77,17.98-22.6-23.49-52.49-39.85-84.45-46.22,16.66,5.26,31.49,15.06,45.62,25.34,11.29,8.21,22.78,17.42,28.05,30.35-22.19-27.53-55.93-43.94-90.56-51.1,27.33,11.28,55.91,23.49,74.17,46.75-7.08-6.91-15.26-12.7-24.14-17.07-5.84-2.88-11.97-5.14-18.08-7.4-9.56-3.53-19.12-7.07-28.69-10.6,10.37,8.79,23.63,13.2,35.88,19.1,12.25,5.89,24.47,14.34,28.98,27.16-11.34-11.5-25.13-20.57-40.18-26.44,13.93,10.12,28.76,21.47,33.41,38.05-14.04-21.13-36.24-35.19-57.77-48.61,9.65,14.07,27.45,21.51,35.28,36.67-13.63-8.86-26.71-18.54-39.16-28.99,12.3,23.18,40.75,33.06,56.49,54.05,3.61,4.81,6.56,10.21,11.11,14.13,4.56,3.92,11.44,6.01,16.61,2.95-2.45-4.71-5.57-9.07-9.24-12.9,5.95-.1,9.98,7.36,15.94,7.26,1.77-.03,3.44-.75,5.06-1.46,6.69-2.93,13.43-5.9,19.42-10.07,4.48-3.12,8.49-6.87,12.47-10.6,1.39-1.3,2.82-2.66,3.49-4.44ZM715,356.88c-9.01-8.62-19.1-15.67-28.8-23.42-4.81-3.84-15.1-12.87-15.1-12.87,0,0,8.67,13.16,13.27,17.5,6.76,6.39,14.34,11.81,21.56,17.65,12.44,10.08,24.51,22.93,25.86,38.88-13.91-26.86-39.23-45.62-63.7-63.41,6.91,9.68,17.58,15.88,26.15,24.12,11.03,10.61,20.23,22.57,25.49,37.94-20.08-27.71-31.47-35.56-41.57-41.76,10.64,13.15,24.43,25.1,28.06,41.62-12.42-15.76-26.01-30.6-40.61-44.36,9.81,16.92,25.04,30.47,33.19,48.25-14.24-13.1-27.41-27.35-39.37-42.56,5.78,13.55,13.79,26.14,23.62,37.12-12.74-9.38-23.84-20.98-32.66-34.11,3.72,16.3,19.45,26.47,29.66,39.71,6.01,7.81,10.19,16.91,13.11,26.32-11.42-21.03-33-34.78-45.92-54.93,3.76,11.77,12.22,21.33,20.01,30.92,7.79,9.59,15.38,20.18,16.8,32.46-12.41-18.73-25.88-36.76-40.33-53.96,4.47,14.41,16.71,25.07,22.97,38.8,3.75,8.22,5.24,17.45,4.26,26.43-3.42-7.63-6.84-15.27-10.25-22.9-4.58-10.23-9.49-20.89-18.4-27.7,10.56,16.95,14.69,32.98,24.16,54.57-6.54-7.28-11.91-15.6-15.83-24.56-2.9-6.62-5.38-14.04-11.4-18.04,5.52,9.87,9.93,20.36,13.13,31.21,1.36,4.6,2.54,9.37,5.22,13.35,2.68,3.98,7.3,7.07,12.05,6.43,2.44-.33,4.65-1.58,6.73-2.89,6.23-3.91,12-8.55,17.15-13.79,11.42-11.61,20.54-26.66,35.66-32.68,3.96-1.58,8.27-2.49,11.75-4.95.89-.63,1.75-1.42,2.04-2.46.32-1.15-.11-2.36-.55-3.47-5.92-14.71-15.93-27.49-27.39-38.45ZM650.38,188.9c-1.33-11.19-4.54-22.16-9.46-32.3,9.63,11.65,17.71,24.57,23.97,38.33.95-16.61-6.57-32.39-13.9-47.32,10.84,8.21,18.37,20.68,20.57,34.1-.41-13.24-2.45-26.43-6.04-39.18,9.41,9.69,15.27,22.76,16.24,36.23,3.02-12.43,2.05-25.79-2.73-37.65,7.22,7.85,11.96,17.94,13.39,28.5,2.95-9.77,3.66-20.21,2.08-30.29,4.59,7.52,6.81,16.46,6.26,25.26,4.3-7.97,7.58-16.49,9.71-25.29,2.56,7.78,2.24,16.48-.89,24.06,6.29-6.58,11.53-14.16,15.47-22.37,2.31,8.99,1.59,18.73-2.04,27.27,7.4-6.81,13.31-15.22,17.22-24.49-.34,9.19-2.9,18.3-7.4,26.32,7.94-5.25,14.68-12.33,19.54-20.52-2.19,11.62-8.76,22.36-18.11,29.59,12.35-4.32,22.93-13.51,28.93-25.14-1.2,9.73-5.37,19.08-11.82,26.46,8.23-4.63,15.18-11.54,19.86-19.74-1.11,7.65-5.16,14.83-11.12,19.74,7.43-3.48,13.83-9.14,18.18-16.09-1.97,7.71-5.71,14.95-10.86,21.02,7.05-3.81,12.94-9.74,16.71-16.81.25,6.27-1.86,12.61-5.81,17.48,5.16-3.27,9.63-7.61,13.05-12.67-1.17,7.83-4.88,15.25-10.44,20.89,5.89-.88,11.39-4.1,15.05-8.78-.02,4.83-2.73,9.56-6.89,12.03,4.38.19,8.82-1.16,12.34-3.78-1.76,1.98-3.63,4.25-3.48,6.89.14,2.64,3.71,4.87,5.5,2.92-.17,4.18,2.86,7.74,5.7,10.81,3.72,4.03,7.44,8.06,11.16,12.09-12.15-11.34-26.67-19.76-41.05-28.08-8.44-4.88-17.87-9.95-27.43-8.02,34.8,13.03,65.99,35.58,89.26,64.56-4-7.48-8.01-14.96-12.01-22.44,10.83,12.53,21.66,25.06,32.49,37.59,3.71-10.07-1.97-21.01-7.97-29.91-6.83-10.11-14.39-19.65-21.85-29.29-21.62-27.96-50.17-62.74-84.48-74.98-11.04-3.94-28.68-7.31-40.37-6.54-11.5.75-25.15.19-41.05,2.48-15.89,2.29-29.04,9.03-40.82,19.94,11.49,9.87,20.32,22.81,25.33,37.11ZM783.82,305.32c5.11,4.16,10.24,8.36,14.53,13.36,7.16,8.37,11.79,18.78,19.67,26.48,3.08-4.66.85-11-2.38-15.56-3.22-4.56-7.47-8.73-8.66-14.18,6.92,7.45,13.26,15.43,18.94,23.87,2.32-5.09-.12-11.11-3.47-15.59-3.34-4.48-7.66-8.37-9.8-13.54,7.35,5.77,13.43,13.16,17.66,21.49,4.18-2.26,4.46-8.46,2.14-12.6-2.32-4.14-6.39-6.94-9.76-10.29-3.42-3.4-6.18-7.47-8.08-11.9,6.95,9.99,21.3,14.62,24.5,26.36,2.97-3.62,1.84-9.23-.97-12.98-2.81-3.74-6.92-6.24-10.46-9.3-5.08-4.39-9.04-10.05-11.44-16.31,10.58,8.39,20.15,18.04,28.47,28.67,1.64-4.08-.04-8.84-2.84-12.23-2.8-3.39-6.58-5.78-10.01-8.53-5.98-4.8-10.96-10.82-14.57-17.59,11.33,8,21.98,16.95,31.81,26.72.28-3.37-1.74-6.45-3.69-9.2-10.47-14.8-21.79-29.25-35.95-40.56,18.75,9.67,34.96,24.21,46.62,41.79,3-.89,3.7-5.12,2.26-7.9-1.44-2.78-4.2-4.58-6.52-6.68-4.26-3.85-7.18-8.91-10.33-13.71-5.45-8.31-11.81-16.02-18.88-23-12.48-12.32-27.2-22.38-43.21-29.52-7.94-3.54-16.47-6.1-24.85-8.49-12.36-3.52-25.58-4.71-25.58-4.71,18.51,4.12,36.71,12.78,53.78,21.04,17.07,8.26,32.81,19.95,43.69,35.47-15.39-15.8-34.72-27.73-55.74-34.42,10.83,7.74,21.65,15.49,32.48,23.23-17.77-7.13-32.26-21.85-50.94-26.03,16.12,7.88,30.3,19.71,40.92,34.17-6.84-7.51-15.43-13.18-23.99-18.65-8.9-5.68-17.95-11.27-27.78-15.12-9.83-3.85-20.59-5.9-31.02-4.28,31.4,6,60.6,22.96,81.37,47.26-21.02-17.59-45.72-32.76-73.06-34.62,28.42,6.33,54.43,22.98,72.08,46.14-16.87-14.35-35.58-28.46-57.56-31.16-7.73-.95-15.8-.47-23.04-3.36,5.27,4.55,12.5,5.86,19.29,7.39,10.05,2.27,20.06,5.44,28.68,11.08,6.51,4.26,12.05,9.81,17.54,15.32,9.17,9.2,18.33,18.4,27.5,27.6-11.06-5.03-18.63-15.29-27.71-23.36-15.1-13.4-35.29-20.93-55.48-20.7,28.91,5.74,53.88,24.64,72.47,47.51-16.58-13.45-34.57-25.16-53.58-34.88,15.06,11.89,30.03,23.89,44.91,36ZM687.56,452.92c.3,12.48-.05,25-1.98,37.33-1.27-8.77-4.54-17.25-9.51-24.59,1.82,8.68,3.64,17.36,5.46,26.05-5.68-4.51-13.54-5.85-20.53-4.04-.02.62-.03,1.24-.05,1.86,3.31-.36,6.68-.1,9.84.95,5.85,1.94,10.85,6.78,12.25,12.79-4.97-6.63-14.87-8.56-22.28-5.12,0,.53-.02,1.06-.03,1.58,9.65-1.41,20.27,4.85,22.95,14.38-6.32-5.3-14.97-7.49-23.11-6.33-.02.71-.03,1.42-.05,2.14,7.76.78,15.23,5.26,18.99,12.15-5.33-4.26-12.45-5.87-19.19-4.94-.04,1.13-.08,2.26-.12,3.39,1.25.17,2.48.45,3.67.87,5.74,2,10.41,6.85,12.2,12.65-4.26-4.37-10.09-7.01-16.14-7.76-.06,1.11-.13,2.22-.2,3.33.42.1.83.2,1.24.32,5.33,1.58,10.32,4.92,12.94,9.82-4.53-2.61-9.36-4.87-14.48-5.87-.1,1.35-.2,2.69-.32,4.04-.07.76-.15,1.52-.22,2.29,4.9,2.79,8.84,7.22,10.53,12.62-3.28-2.71-7.18-4.61-11.3-5.67-.21,1.68-.45,3.36-.7,5.03,3.55,2.49,6.45,5.88,8.13,9.89-2.58-2.35-5.61-4.15-8.85-5.4-.42,2.46-.89,4.91-1.41,7.34,2.66,2.12,5.02,4.61,6.97,7.4-2.52-1.44-5.07-2.89-7.72-4.07-.43,1.82-.89,3.64-1.39,5.44,2.32,1.93,4.31,4.25,5.78,6.89-2.11-1.41-4.38-2.56-6.76-3.46-.59,1.97-1.24,3.92-1.92,5.86,2.33,1.93,4.4,4.17,6.1,6.66-2.38-1.23-4.87-2.24-7.42-3.06-.57,1.48-1.16,2.94-1.78,4.39,2.73,2.13,5.17,4.64,7.19,7.46-2.92-1.38-5.97-2.44-9.11-3.21-.61,1.28-1.24,2.54-1.9,3.79,3.33,1.87,6.47,4.09,9.31,6.64-3.79-.96-7.59-1.92-11.38-2.87-.4.7-.79,1.4-1.21,2.09-.27.44-.54.87-.81,1.3,3.33,1.99,6.6,4.09,9.78,6.31-4.38-.26-8.75-.74-13.1-1.4-.66.91-1.33,1.82-2.03,2.71,3.87,1.87,7.68,3.87,11.42,6-5.02-.2-10.02-.79-14.96-1.74-.56.63-1.13,1.26-1.7,1.88,4.15,2.22,8.17,4.69,12.03,7.39-6.02,0-12.03-.55-17.96-1.6-.73.65-1.47,1.29-2.22,1.91,6.06,2.87,12.05,5.9,17.93,9.14-9.51,1.19-19.52.81-28.99-1.43-1.01.58-2.04,1.14-3.08,1.67,2.78.97,5.64,1.77,8.47,2.51,7.71,2.03,15.47,3.91,23.25,5.64-2.44,2.53-6.4,2.66-9.91,2.41-10.03-.73-19.92-3.23-29.11-7.32-.3.11-.6.23-.9.34,11.43,9.03,27.01,11.16,41.63,12.86-18.29,4.02-38.12.4-53.85-9.75-.07.01-.14.02-.21.03,12.04,12.45,30.17,16.85,47.42,18.79-17.55,2.32-34.85-4.69-51.16-11.55,12.8,12.26,31.23,16.39,48.82,18.61-18.71,1.72-37.92-2.64-54.06-12.25,8.95,11.52,24.74,14.67,39.13,17.03,5.27.86,10.53,1.72,15.8,2.59-9.36,3.31-19.74,3.12-29.33.56-9.59-2.55-18.46-7.37-26.57-13.1,4.82,8.82,13.5,15.02,22.85,18.71s19.41,5.1,29.38,6.3c-6.5,3.11-14.15,1.83-21.22.43-12.84-2.54-26.33-5.6-35.95-14.48,4.61,9.62,14.13,16.22,24.3,19.47,10.17,3.25,21.02,3.53,31.7,3.33-8.99,2.81-18.67,2.15-28.03,1.05-11.18-1.31-23.66-4.07-29.58-13.64,3.03,7.76,9.94,13.53,17.58,16.87s16.03,4.51,24.32,5.36c3.82.39,7.64.72,11.47.98-19.38,4.79-40.92-.18-56.25-12.99,4.48,9.13,13.78,15.05,23.43,18.24,9.65,3.2,19.88,4.1,29.87,5.99-19.2,2.89-39.39-1.36-55.8-11.75,12.48,16.15,34.76,21.87,55.12,20.36-19.23,6.07-41.18,2.8-57.8-8.61,4.88,9.57,15.21,15.47,25.77,17.42,10.56,1.95,21.45.48,32.01-1.45-9.5,5.38-20.94,6.94-31.71,5.19-10.78-1.74-20.91-6.66-29.55-13.34,3.75,10.42,14.49,17.04,25.39,19,10.9,1.96,22.08.06,32.99-1.85-5.3,4.62-12.48,6.5-19.49,7.05-14.22,1.12-28.79-2.85-40.49-11.03,3.5,9.39,12.98,15.34,22.6,18.12,11.29,3.27,24.14,2.89,34.02-3.48-8.85,7.82-21.62,10.96-33.08,8.13-8.71-2.15-16.49-7.44-25.35-8.81,6.95,8.12,16.77,13.72,27.29,15.59,10.52,1.86,21.67-.03,30.98-5.26-2.21,4.07-6.37,6.83-10.81,8.12s-9.17,1.24-13.77.75c-14.37-1.54-27.93-4.57-39.85-13.24,3.98,9.1,12.37,15.89,21.8,18.99,9.43,3.1,19.78,2.72,29.35.07-18.13,7.87-40.46,5.01-56.04-7.16,6.34,9.3,16.79,15.43,27.84,17.56,11.05,2.13,22.64.48,33.15-3.56-19.82,10.82-45.77,9.24-64.14-3.9,6.51,8.36,16.01,14.35,26.36,16.61,10.35,2.26,21.49.79,30.89-4.1-8.31,6.09-18.65,9.37-28.95,9.16s-20.5-3.89-28.56-10.31c3.06,3.82,6.21,7.71,10.37,10.28,2.58,1.59,5.47,2.62,8.38,3.45,7.94,2.28,16.35,3.21,24.51,1.95,5.61-.87,11.1-2.8,15.9-5.85,4.42-2.81,5.02-5.51,7.17-9.91,5.5-11.25,10.95-22.15,15.05-34.04,8.19-23.72,13.01-48.41,18.42-72.87.22-.98.43-1.95.65-2.93,10.61-47.5,24.22-94.28,38.08-140.93,9.18-30.88,18.54-62.08,20.16-94.25-3.71,2.26-6.9,3.17-11,4.62ZM638.85,570.34c5.94-21.8,5.3-44.95,1.76-67.27-1.31-8.29-3.05-16.71-6.62-24.36-2.55-5.46-10.11-16.32-13.02-3.94-.82,3.47.15,7.08,1.08,10.52,6.69,24.73,11.95,51.25,4.1,75.64,1.93-26.01-1.56-52.41-10.2-77.03-8.27,24.5-.81,51.28-2.15,77.1-.18,3.49-.54,6.96-1.05,10.41,6.54,9.02,9.32,19.38,11.45,30.38,6.68-9.47,11.61-20.27,14.66-31.46ZM333.96,699.28c-5.35-.08-11.47.97-14.31,5.5,10.09-2.01,21,.62,29.06,7.01-5.45-.56-10.91-1.11-16.36-1.67-13.94-1.42-14.58,6.04-17.09,17.08-3.18,13.99-7.68,27.68-13.41,40.83-2.87,6.59-6.06,13.07-8.07,19.97-1.66,5.68-2.49,11.6-2.47,17.52,0,1.48.09,3.04.87,4.29.68,1.1,1.81,1.83,2.93,2.47,10.59,6.13,23.45,8.23,35.45,5.79-11.47-2.03-22.43-6.82-31.73-13.83,11.16,1.8,22.32,3.6,33.48,5.41-8.27-6.66-22.62-4.24-28.23-13.26,11.04,3.54,22.59,5.5,34.18,5.81-11.57-3.59-22.68-8.69-32.94-15.13,12.58,3.93,25.16,7.85,37.74,11.78-10.54-9.66-26.22-11.56-37.66-20.14,13.17,1.74,26.08,5.52,38.11,11.16-5.8-6.02-13.92-9.12-21.75-12.04-4.09-1.53-8.19-3.05-12.28-4.58,12.4.88,24.63,4.04,35.9,9.27-10.44-7.13-21.42-13.47-32.82-18.94,12.7,1.94,25.19,5.18,37.22,9.67l-33.12-17.22c14,.71,27.87,3.85,40.81,9.24-5.53-5.18-12.48-8.83-19.88-10.45-3.5-.77-7.11-1.09-10.5-2.26-3.39-1.17-6.65-3.38-7.98-6.71,14.12,3.19,27.98,7.57,41.37,13.08-8.81-11.94-28.72-11.19-37.01-23.5,14.36,2.01,28.2,7.7,39.82,16.38-9.96-9.81-22.35-17.13-35.75-21.13,14.66.18,28.25,7.18,41.22,14-10.62-9.57-23.38-16.75-37.07-20.87,16.85-.32,32.16,9.06,46.37,18.11-12.39-12.41-28.45-21.11-45.61-24.7,9.27-2.35,19.24.03,27.67,4.56s15.56,11.09,22.54,17.63c-6.16-11.67-16-21.36-27.76-27.35,12.82,2.21,24.73,9.31,32.77,19.53-10.54-19.18-31.8-31.98-53.68-32.33ZM328.79,898.78c-2.35-.42-5.36,1.73-6.67,3.47-1.39,1.84-2.11,4.08-2.76,6.28-.34,1.13-.66,2.26-.97,3.4-.13.47-.26.96-.18,1.43.1.6.5,1.09.93,1.53,1.94,1.97,4.62,3.18,7.38,3.33,2.76.16,5.56-.75,7.7-2.48.2-.16.4-.33.51-.56.13-.26.13-.56.14-.85.03-3.02.06-6.09-.79-8.99-.69-2.34-2.56-6.08-5.28-6.57ZM306.46,898.57c-.96-1.09-2.07-1.53-3.34-2.25-.86-.49-1.95-.44-2.87-.08s-1.72.97-2.49,1.59c-1.77,1.41-3.56,2.92-4.53,4.96-.68,1.42-.92,3-1.15,4.55l-.73,4.89c1.37,1.34,2.36,2.85,3.73,4.2.5.49,1.02,1,1.64,1.33,1.03.55,2.25.59,3.42.61.92.02,1.86.03,2.76-.17.73-.17,1.42-.48,2.11-.79,1.44-.65,2.87-1.29,4.31-1.94.48-2.88.81-6.01.47-8.91-.35-2.9-1.38-5.78-3.31-7.98ZM278.27,894.11c-1.19.62-2.34,1.32-3.3,2.25-2.04,1.97-3.05,4.74-4,7.41.68,1.54,1.87,2.7,3.28,3.62,2.96,1.92,6.73,1.88,10.26,1.77.6-2.63,1.09-5.46,1.03-8.15-.05-2.63-1.15-5.36-2.39-7.68-1.57-.65-3.36,0-4.87.79ZM309.42,823.61c-6.99-1.7-14.34-5.42-18.53-9.81.7,15.24,30.04,19.61,39.72,11.68-6.61.02-13.55-.01-21.19-1.87ZM327.64,833.75c-5.16.93-13.07,1.69-20.72-.17-6.99-1.7-11.84-5.07-16.03-9.47.7,15.24,30.07,18.26,36.75,9.64ZM326.95,841.62c-5.01,1.12-12.72,2.18-20.27.67-6.9-1.38-11.79-4.49-16.06-8.62,1.3,14.88,30.15,16.65,36.33,7.95ZM326.04,850.75c-17.68,3.89-27.4.29-33.28-5.58,3.02,14.9,28.36,14.3,33.28,5.58ZM324.21,858.77c-15.97,3.52-24.76.26-30.07-5.04,2.73,13.46,25.62,12.92,30.07,5.04ZM324.43,865.95c-15.97,3.52-24.76.26-30.07-5.04,2.73,13.46,25.62,12.92,30.07,5.04ZM328.4,869.27c-17.82,8.12-30.34,4.39-35.65-.91,2.73,13.46,29.05,11.65,35.65.91ZM318.72,886.77c5.52-2.04,11.48-4.78,14.29-10.25-5.93,4.48-13.07,7.34-20.46,8.19,6.99-2.61,14.72-6.44,18.67-13.01-4.41,4.64-10.23,8.09-16.64,9.01-8.01.76-16.78.29-23.82-3.78,4.3,4.15,10.02,6.82,15.96,7.44-5.69.69-11.55-.16-16.81-2.42,6.77,7.79,18.47,3.36,26.24,9.45,6-2.99,12.64-4.96,19.42-4.71-4.79-3.18-11.63-.99-16.87.07ZM321.89,694.38c22.25-3.08,45.21,3.86,69.35,27.57-16.75-30.28-51.76-40.93-69.35-27.57ZM323.08,684.4c22.25-3.08,45.21,3.86,69.35,27.57-16.75-30.28-51.76-40.93-69.35-27.57ZM323.92,673.78c23.88-3.31,48.51,4.15,74.42,29.59-17.97-32.49-55.55-43.93-74.42-29.59ZM325.61,662.79c23.88-3.31,48.51,4.15,74.42,29.59-17.97-32.49-55.55-43.93-74.42-29.59ZM390.4,671.2c-15.39-28.11-47.02-31.12-63.77-16.83,19.45-7.19,43.47-2.63,63.77,16.83ZM321.21,596.27c14,3.57,49.56-9.3,49.56-41.61-11.4,20.25-28.51,33.38-49.56,41.61ZM373.82,573.94c-11.4,20.25-28.75,26.91-47.19,31.29,10.66,7.27,46.01-1.69,47.19-31.29ZM330.69,615.54c10.66,7.27,43.98.18,49.22-29.58-11.4,20.25-32.81,28.92-49.22,29.58ZM334.15,624.84c14.62,6.63,45.16,3.89,50.83-27.99-10.38,21.63-33.29,28.87-50.83,27.99ZM389.1,608.8c-5.48,8.01-13.17,14.59-21.82,19.02-10.97,6.13-23.99,7.38-35.05,13.13,31.39-4.49,43.28,3.36,58.16,12.66-5.92-10.52-18.46-14.81-28.68-17.71,11.8-4.83,23.83-14.31,27.38-27.1ZM320.49,432.57c10.61,9.18,22.76,16.33,35.06,23.13-.25-2.16-.48-4.28-.7-6.35-11.71-5.05-23.18-10.64-34.36-16.77ZM358.4,477.94c-.48-3.34-.94-6.68-1.36-9.99-.06-.03-.12-.06-.18-.09-15.09-7.81-30.34-15.74-43.07-26.99,13.41,13.94,29.85,24.58,44.61,37.07ZM326.44,445.06c9.68,7.35,19.8,14.13,30.27,20.31-.28-2.22-.55-4.43-.8-6.6-10.04-4.08-19.89-8.64-29.47-13.71ZM289.53,516.4c5.12,13.54,15.82,24.07,26.22,34.14-8.86-5.24-16.94-11.78-23.92-19.35,3.71,7.22,8.58,13.85,14.36,19.56,3.19,3.15,6.95,6.14,11.4,6.62,5.53.59,10.63-2.8,15.02-6.19,12.38-9.56,23.7-20.5,33.69-32.53-2.28-8.31-4.27-18.12-5.99-28.36-8.86-2.32-16.93-7.41-24.09-13.24-8.46-6.89-17.46-13.79-26.01-20.57,4.27,6.17,10.07,11.28,15.45,16.51,8.84,8.6,16.11,14.82,24.55,23.81-18.82-7.6-29.01-22.33-45.92-34.38,11.04,14.97,28.11,26.16,38.9,41.32-3.09-.73-7.29-2.72-9.66-4.83-10.62-9.43-21.24-18.87-31.86-28.3,9.42,14.98,25.21,24.76,36.37,38.49-4.96-1.3-9.31-4.23-13.45-7.25-8.94-6.52-17.38-13.72-25.23-21.51,10.21,13.37,20.59,26.76,33.13,37.98-12.37-7.6-23.69-16.92-33.51-27.61,8.38,12.57,18.14,24.22,29.04,34.68-6.5-2.86-11.84-7.77-17.02-12.63-5.27-4.94-10.5-9.9-15.73-14.87,7.79,13.72,17.83,26.17,29.59,36.68-13.13-7.58-24.79-17.69-34.16-29.62,8.7,14.32,19.19,27.54,31.14,39.28-4.66-.94-8.49-4.14-12.02-7.33-7.14-6.45-13.92-13.3-20.31-20.5ZM307.05,443.36c14.72,17.25,32.93,32.74,52.92,44.83-.33-2.01-.65-4.04-.95-6.07-.18-.13-.37-.25-.55-.38-13.07-9-47.99-34-51.42-38.38ZM352.47,424.21c-10-5.4-20.43-10.32-31.7-10.99,6.53,2.17,12.96,4.65,19.26,7.41,4.43,1.95,8.98,4.22,12.75,7.23-.11-1.29-.21-2.5-.31-3.65ZM354.11,442.18c-.32-3.22-.61-6.27-.87-9.1-13.02-6.73-27.05-11.53-41.47-14.14,16.1,2.99,31.1,11.35,42.34,23.25ZM615.75,602.06c.25-1.98.3-3.99.44-6.02.34-15.17-11.59-29.1-27.51-25.77,15.13,1.08,23.67,11.94,26.02,25.92.35,1.93.6,3.89,1.04,5.87ZM607.92,619.12c9.17-21.28-1.06-44.19-25.02-47.11,16.11,5.59,26.97,18.39,25.99,35.82.08,3.7-.62,7.6-.97,11.29ZM595.65,632.3c16.83-19.24,9.38-47.12-14.06-56.54,13.22,11.3,21.78,25.24,18.26,42.96-1.01,4.59-2.66,9.1-4.2,13.59ZM542.22,634.19c-7.79-3.95-15.73-8.09-21.64-14.52-8.31-9.02-11.74-21.75-11.47-34,.27-12.26,3.91-24.19,8.24-35.67,2.66-7.07,10.03-18.52,14.72-24.45,5.21-10.98,25.73-13.42,27.46,3.67.49,4.77-.49,10.24-4.61,12.7-4,2.39-9.44,1.1-12.9-2.02-3.47-3.12-5.29-7.67-6.43-12.2-.5,4.31-.34,8.78,1.23,12.81,1.58,4.04,6.61,6.5,10.72,7.89-6.35.51-14.41-3.33-17.8-8.86,2.34,6.39,8.47,11.34,14.75,13.93-5.75.51-12.07-2.95-17.5-4.94,3.44,6.18,11.24,8.13,18.18,9.49-8.58,2.98-16.71,1.37-24.82-.48,6.76,5.11,16.05,6.69,24.11,4.09-7.39,5.52-17.49,5.11-26.69,4.44,3.86,2.86,8.87,3.79,13.67,3.54,4.79-.25,9.45-1.6,14.06-2.93-9.14,6.92-19.89,11.69-31.15,13.84,11.49,1.98,23.76-1.19,32.84-8.5-3.2,5.59-8.44,9.8-14.15,12.79-5.71,2.99-11.92,4.87-18.09,6.73,13.46,1.51,27.52-3.95,36.42-14.17-2.94,6.27-7.97,11.36-13.63,15.34-5.67,3.98-11.97,6.93-18.26,9.81,7.51.35,14.99-2.2,21.23-6.39,6.25-4.2,11.31-9.97,15.43-16.27-.88,5.64-4.84,10.25-8.76,14.39-6.93,7.33-14.65,14.52-24.32,17.36,8.12,2.05,16.83-1.72,22.82-7.57,5.99-5.86,9.79-13.54,13.45-21.08-1.72,16.92-13.19,32.49-28.83,39.16,4.22.87,8.5-1.12,12.06-3.54,12.02-8.17,19.87-22.18,20.56-36.69,3.66,18.22-4.16,38.24-19.21,49.15,6.92-.45,12.46-5.89,16.36-11.62,7.1-10.44,11.03-23.65,7.88-35.88,4.13,8.78,5.32,18.91,3.32,28.4s-7.16,18.29-14.47,24.66c4.94.14,9.18-3.49,12.2-7.4,9.92-12.81,12.11-31.16,5.49-45.94,6.74,7.29,10.02,17.5,9.4,27.41-.61,9.91-4.97,19.44-11.59,26.84,7.48-3.57,12.39-11.07,15.2-18.87,2.27-6.32,3.4-13.15,2.42-19.79-.99-6.64-4.23-13.07-9.54-17.18,6.82,4.11,11.7,11.14,13.68,18.85,1.97,7.72,1.12,16.04-1.88,23.42-2.17,5.34-5.63,10.39-10.66,13.22-3.58,2.01-7.73,2.78-11.82,3.22-3.72.41-7.5.58-11.21.02-5.82-.89-11.21-3.55-16.47-6.21ZM545.5,530.2c1.18,3.9,4.21,6.44,6.77,5.67,2.57-.77,3.69-4.57,2.51-8.47-1.18-3.91-4.21-6.45-6.78-5.67-2.56.77-3.68,4.56-2.5,8.47ZM535.47,803.02c7.67,18.49,43.53,23.45,57.74,9.7-16.69,4.74-45.78,1.35-57.74-9.7ZM589.14,821.5c-16.76,6.62-45.84,2.91-57.74-9.7,7.67,18.49,43.53,23.45,57.74,9.7ZM586.77,830.28c-16.76,6.62-45.84,2.91-57.74-9.7,7.67,18.49,43.53,23.45,57.74,9.7ZM586.77,839.75c-16.76,6.62-45.84,2.91-57.74-9.7,7.67,18.49,43.53,23.45,57.74,9.7ZM506.44,916.34c-4.05-.26-8.02,1.79-10.77,4.79s-4.39,6.84-5.48,10.76c-.49,1.79.35,3.43,1.61,4.79,2.46,2.66,5.84,4.38,9.38,5.18,3.54.79,7.23.7,10.81.11,1.28-4.51,2.51-9.02,2.2-13.7-.31-4.68-3.08-11.63-7.76-11.92ZM552.29,924.9c-1.39-1.78-5.06-3.63-7.29-3.97-5.7-.89-11.49,2.52-14.62,7.37s-3.99,10.86-3.76,16.63c.1,2.69,3.82,3.4,6.36,4.3,7.46,2.64,16.09,1.71,22.82-2.44.76-3.71,1.11-7.58.73-11.35-.39-3.81-1.87-7.51-4.23-10.53ZM586.5,923.32c-.79-.17-1.62-.11-2.43-.04-1.35.11-2.57.3-3.88.64-4.01,1.02-6.86,4.69-8.35,8.55-1.38,3.56-1.88,7.46-1.44,11.25,7.37,4.05,17.27,3.21,23.84-2.03.4-5.53-.86-12.64-4.78-16.56-.83-.83-1.81-1.55-2.95-1.81ZM585.4,858.4c-13.87,5.61-30.64,4.9-41.86-5.92,12.43,4.88,31.72,8.49,40.31-4.48,0,0-7.91,3.51-17.17,3.77-14.66.42-29.59-4.25-42.15-11.85,12.18,18.66,41.78,39.35,60.86,18.47ZM590.32,866.25c-10.13,11.31-29.13,7.33-41.02.56-9.85-4.04-19.93-8.23-27.72-15.49,4.24,9.23,14.46,14.65,23.71,17.83-10.15,3.27-22.05.2-29.36-7.55,3.67,10.54,16.22,13.77,26.36,12.82-9.89,5.77-23.29,3.98-31.33-4.17.62,10.76,13.83,12.42,22.45,11.23-5.83,6.55-20.79,6.99-27.04.87,8.1,18.11,29.6,2.64,43.42,2.76,12.43.4,26.69,8.07,37.02-2.3-11.31,3.35-23.17-.44-32.35-7.33,13.28,2.89,31.01,9.62,35.87-9.24ZM496.45,912.91c9.23-5.26,17.4-3.61,24.19,3.21-3.38-13.41-20.85-11.03-24.19-3.21ZM500.25,902.41c9.89-3.89,17.74-1.08,23.48,6.64-1.43-13.76-19.06-13.9-23.48-6.64ZM593.2,917.71c-6.94-11.96-23.08-4.86-24.14,3.57,7.42-7.6,15.73-8.26,24.14-3.57ZM591.05,908.02c-7.44-11.66-23.26-3.88-23.96,4.6,7.09-7.91,15.37-8.92,23.96-4.6ZM529.04,919c9.2-7.37,22.08-3.62,28.87,1.78-6.65-16.33-22.44-12.27-28.87-1.78ZM525.9,910.96c12.45-10.12,28.33-6.15,34.38,2.12-7.92-19.45-26.72-14.61-34.38-2.12ZM588.3,895.41c-2.6-1.87-5.94-2.41-9.14-2.39s-6.39.54-9.59.56c-5.07.04-9.05-1.84-13.82-2.98-4.66-1.11-10.75-.63-15.36.48-1.94.47-3.82,1.15-5.74,1.71-8.74,2.52-18.29,2.1-26.78-1.16,2.05,1.16,4.12,2.32,6.31,3.19,2.12.85,4.34,1.41,6.56,1.97,2.1.53,4.22,1.07,6.38,1.09,3.71.04,7.25-1.41,10.89-2.14,6.34-1.27,13.12-.27,18.82,2.79,1.38.74,2.72,1.6,4.24,1.94,1.99.44,4.05-.08,5.99-.68,6.98-2.15,14.02-5.52,21.23-4.39ZM506.37,809.66c-10.9,8.92-21.18,8.69-35.63,2.15,6.99,10.32,29.51,15.35,35.63-2.15ZM154.03,873.21c3.02-2.72,4.25-5.51,4.27-9.57-3.58,1.85-5.31,5.67-4.27,9.57ZM163.16,879.97c1.24-4.14,1.04-7.34-.66-11.31-2.49,3.49-2.23,8.14.66,11.31ZM174.36,882.04c-1.02-4.84-2.67-8.19-5.85-11.97-.94,4.8,1.46,9.77,5.85,11.97ZM174.43,869.5c.63,5.12,5.48,11.01,11.07,9.45-4.63-2.93-6.48-6.45-11.07-9.45ZM190.42,869.34c-4.08-2.52-6.45-3.88-10.63-6.23.37,4.84,6.23,8.29,10.63,6.23ZM199.91,862.53c-6.6-1.17-11.43-2.58-17.6-5.18,3.13,5.97,11.74,8.52,17.6,5.18ZM202.1,854.93c-6.49-.97-11.41-1.86-17.82-3.27,4.04,5.16,12.21,6.67,17.82,3.27ZM184.05,846.24c5.49,3.64,13.51,5.34,19.16,1.13-6.85-.01-12.31-1.58-19.16-1.13ZM202.63,837.71c-6.38-.72-11.83-.38-18.07,1.08,5.75,2.74,12.69,2.34,18.07-1.08ZM203.62,828.79c-7.51,1.06-13.73,1.85-21.28,2.63,6.69,3.49,15.64,2.4,21.28-2.63ZM202.19,821.43c-7.63.51-14.04,1.07-21.65,1.83,6.76,3.47,15.57,2.74,21.65-1.83ZM179.14,815.65c7.51.94,17.8,3.98,23.1-3.32-7.54,3.45-15.64-.06-23.1,3.32ZM176.87,808.46c8.5,2.68,19.56,2.91,26.2-3.9-8.83,2.96-17.12,2.28-26.2,3.9ZM201.21,792.41c-7.44,6.96-17.25,5.4-26.58,7.6,8.8,2.34,22.67,2.51,26.58-7.6ZM199.86,788.69c-9.56,3.1-18.59,2.26-28.45,3.51,9.14,3.04,20.97,3.5,28.45-3.51ZM197.08,780.06c-9.76,2.66-18.62,4.06-28.74,4.51,9.31,3.86,21.06,2.03,28.74-4.51ZM191.4,771.74c-8.91,4.42-18.09,3.09-27.59,5.25,9.04,2.2,21.25,2.87,27.59-5.25ZM188.17,764.94c-8.88,1.67-16.66,2.69-25.67,3.3,8.21,3.65,18.66,2.33,25.67-3.3ZM157.09,759.71c8.97,4.38,20.54,3.59,28.81-2-9.91,1.53-18.79,2.17-28.81,2ZM183.14,746.32c-9.64,2.62-18.37,4.12-28.33,4.83,9.28,3.6,20.78,1.65,28.33-4.83ZM180.94,737.71c-9.69,4.02-19.15,2.93-29.37,4.03,9.42,3.22,22.02,3.83,29.37-4.03ZM180.32,728.08c-9.39,5.35-19.22,4.22-29.61,5.28,9.55,3.32,22.98,3.72,29.61-5.28ZM178.28,721.71c-10.89,3.26-21.18,4.01-32.42,2.31,9.72,5.92,23.64,4.95,32.42-2.31ZM174.77,710.3c-10.38,5.58-21.28,4.74-32.66,6.08,10.71,3.02,24.89,3.19,32.66-6.08ZM172.86,701.85c-11.7,2.94-22.67,4.43-34.74,4.64,11.31,4.06,24.89,2.26,34.74-4.64ZM174.14,694.46c-13.41,2.12-26.1,3.56-39.65,4.44,13.1,3.34,27.62,1.73,39.65-4.44ZM173.22,686.77c-14.15,3.38-27.85,3.75-42.34,3.56,13.67,4.42,29.8,3.86,42.34-3.56ZM168.46,678.85c-12.5,2.78-24.49,1.69-37.16,2.78,12.06,3.13,26.17,4.07,37.16-2.78ZM146.42,674.15c1.34-1.59,2.54-3.18,3.28-4.04.3-.35.59-.7.89-1.05-7.87.79-15.72,1.68-23.78,1.55,6.13,3,12.87,3.97,19.61,3.54ZM155.16,663.46c1.19-1.49,2.35-3,3.49-4.52-11.09.16-22.12,1.28-33.19,2.71,9.64,2.6,19.78,3.05,29.7,1.81ZM163.48,652.21c.58-.83,1.15-1.67,1.71-2.52-14.68-1.03-29.51.34-43.78,4.01,14,1.66,28.24,1.17,42.07-1.49ZM169.2,641.01c-15.46-4.08-32.32-3.26-47.33,2.23,15.89.71,31.59,0,47.33-2.23ZM171.46,631.01c-17.03-3.85-35.24-2.92-51.82,2.57,17.38.73,34.6-.1,51.82-2.57ZM174.63,622.03c-18.45-3.4-37.62-2.98-55.92,1.13,18.61,2.13,37.41,1.78,55.92-1.13ZM175.38,614.25c-19.07-6.51-40.1-5.05-59.45-.46,19.55,1.67,39.83.25,59.45.46ZM114.58,604.01c20.58.04,40.77.57,61.33,1.54-19.42-7.23-41.56-7.77-61.33-1.54ZM173.32,597.59c-18.02-10.71-40.85-8.11-60.1-2.31,20.19.51,40.18-2.23,60.1,2.31ZM177.25,590.12c-18.98-10.23-42.67-12.19-63.09-5.29,21.32-.58,42.15,1.19,63.09,5.29ZM181.49,581.15c-20.38-11.05-47.2-16.8-68.47-5.05,23.02-5.45,45.89.16,68.47,5.05ZM180.87,571.53c-19.06-13.8-46.52-15.87-67.46-5.14,22.67-4.39,45.71-2.61,67.46,5.14ZM183.91,564.17c-19.21-15.02-47.46-18.37-69.66-8.31,23.66-3.65,47.52-.78,69.66,8.31ZM182.61,554.58c-19.06-11.63-44.87-18.51-65.59-7.24,22.32-4.91,44.06,1.7,65.59,7.24ZM188.43,547.77c-18.53-15.6-46.96-19.14-68.77-8.63,23.37-4.09,47.13-1.08,68.77,8.63ZM192.25,539.32c-19.21-14.82-47.26-18.11-69.4-8.19,23.57-3.52,47.29-.7,69.4,8.19ZM172.93,525.23c8.37,1.36,15.98,3.83,24.4,5.32,4.74.32,8.79-1.35,12.69-2.5,3.86-1.21,7.91-2.32,11.87-.69-1.69-1.24-3.86-1.88-6.01-1.99-5.98-.36-12.58,2.51-18.16,1.63-3.57-.83-7.95-2.47-11.71-3.42-20.04-5.49-42.4-7.51-61.95.76,16.34-2.98,32.67-2.23,48.86.88ZM197.67,520.78c-21.22-12.68-49.15-14.38-71.77-4.44,24.11-3.63,48.29-2.11,71.77,4.44ZM218.77,518.89c-27.56-12.66-60.86-23.3-90.15-10.24,30.64-6.7,60.46,3.73,90.15,10.24ZM217.26,509.72c-6.89-3.26-13.91-6.28-21.14-8.87-21.32-7.66-47.06-11.45-67.29,1.07,21.49-8.24,44.7-3.87,65.89,3.07,7.17,2.28,14.27,4.89,21.41,7.45,3.14.89,6.24,2.26,8.77,4.35,2.6,2.08,4.04,5.38,3.04,8.72.77-1.52,1.15-3.37.73-5.16-1.26-5.33-7.07-8.92-11.41-10.62ZM208.37,501.95c-22.08-16.29-55.63-24.16-79.56-7.47,26.3-10.36,54.47-2.77,79.56,7.47ZM200.41,493.68c-14.7-20.25-48.79-21.45-67.68-6.57,21.82-8.45,48.58-8.04,67.68,6.57ZM192.1,478.78c-16.74-11.74-42.35-12.71-58.44.67,19.26-7.31,38.86-6.16,58.44-.67ZM204.91,480.21c-16.44-19.92-49.16-24.48-70.44-9.86,23.88-8.15,49.87-4.38,70.44,9.86ZM196.05,581.15c-5.04,53.2-20.23,75.02-37.61,90.05,40-14.84,55.56-46.35,55.88-88.25-6.21-7.86-12.3-8.75-18.27-1.8ZM196.6,569.63c7.05-6.94,17.12-5.83,26.06-4.53-7.41-5.88-22.61-5.69-26.06,4.53ZM196.41,560.92c7.27-5.54,16.77-7.19,25.5-4.54-6.98-7.09-21.4-4.53-25.5,4.54ZM195.97,553.92c7.41-6.39,16.63-7.92,25.72-4.3-6.73-8.07-21.98-5.51-25.72,4.3ZM196.01,544.54c8.3-5.73,18.26-7.72,27.24-2.36-6.09-9.58-22.35-7.09-27.24,2.36ZM209.51,532.8c5.35.96,9.15-.12,13.83,3.04-.84-6.29-9.92-6.7-13.83-3.04ZM226.6,406.24c-15.35.78-30.3,14.76-30.4,30.3,5.15-20.75,32.41-34.38,49.72-19.34,5.33,4.51,9.06,11.08,10.31,18.46,1.71-16.02-13.59-30.67-29.63-29.41ZM243.07,404.46c12.66,6.46,15.75,20.71,17.96,33.56.77,4.42,1.36,8.78.63,13.41,7.75-14.34.39-45.51-18.6-46.97ZM260.62,461.79c13.42-10.1,17.24-33.6,3.28-44.8,5.49,10.66,5.57,22.7,1.52,33.77-1.3,3.69-2.98,7.29-4.8,11.03ZM261.48,404.11c20.3,22.94,18,59.04-11.61,72.56,34.52-7.37,38.9-53.28,11.61-72.56ZM279.16,456.76c-7.56,19.78-33.15,23.5-41.88,42.38,11.94-15.93,38.16-20.51,41.88-42.38ZM233.16,545.12c2.32-2.38,3.68-5.6,4.5-8.85,2.24-9.4-.78-20.06,2.58-28.89,4.56-12.27,16.81-19.1,27.54-25.69-12.25,4.69-25.41,11.49-30.39,24.64-3.7,10.03.07,19.75-1.19,29.68-.32,3.19-1.27,6.32-3.03,9.11ZM278.65,471.67c-2.1,19.39-28.55,20.92-33.54,38.92-3.51,13.5,2.13,26.32-3.8,38.86-1.58,4-3.94,7.7-6.78,11.04,3.34-2.86,6.03-6.48,8.13-10.41,6.86-11.68,2.23-26.68,5.37-38.61,4.92-16.7,31.3-20.27,30.62-39.8ZM254.01,518.59c.8-5.38,4.51-9.73,8.6-13.79,4.02-4.04,8.6-8.37,10.47-14.04-4.53,7.75-13.03,11.57-18.34,18.77-6.04,7.33-3.5,17.93-3.63,26.14-.26,5.58-2,11.18-5.16,16.11,4.1-4.19,6.84-9.88,7.53-15.92.72-6.03-.44-11.92.54-17.28ZM257.83,524.17c-1.44,4.72-.52,9.16-1.14,13.26-.53,4.19-1.7,8.35-3.56,12.35,2.87-3.36,4.93-7.51,5.9-11.95,1.13-4.5.43-9.06,1.71-12.77,2.84-7.8,8.73-15.02,12.1-22.85-5.64,7-11.73,13.28-15.01,21.96ZM263.26,535.5c-.71,2.79-1.81,6.02-.67,8.85.16-2.96,1.78-5.32,2.9-8.03,3.43-7.75,7.28-15.96,10.15-24-5.95,6.61-9.92,14.72-12.38,23.19ZM240.17,453.41c-5.45,4.52-8.77,8.87-16.33,9.08,6.63,4.64,15.13-2.02,16.33-9.08ZM235.5,451.43c-.14-3.62-5.23-4.36-7.85-2.84-2.76,1.22-5.26,5.18-3.14,7.89.81-4.28,7.28-7.94,11-5.05ZM242.59,460.38c-5.23,5.76-10.74,8.94-18.36,10.52,7.38,3.2,17.4-2.53,18.36-10.52ZM224.51,488.51c3.99-7.15,12.38-7.88,19.04-11.66,7.74-3.76,9.64-13.7,7.99-21.41l-1.31-8.14-1.62,8.07c-1.11,5.56-3.33,11.09-7.68,14.64-4.9,2.93-10.37,6.03-14.39,10.35,6.99-5.73,17.63-6.88,21.86-15.66.18-.32.32-.66.49-.98-.1.99-.26,1.96-.51,2.9-2.88,11.71-20.2,10.57-23.87,21.9ZM227.34,499.21c5.64-6.18,10.54-11.46,16.33-17.51-7.98,2.34-14.56,9.37-16.33,17.51ZM221.02,505.26c-5.72-9.21-13.27-17.31-22.88-22.49,6.9,8.42,14.04,16.08,22.88,22.49ZM220.98,496.32c-1.64-6.88-7.05-12.69-13.82-14.77,4.36,5.63,8.5,10.04,13.82,14.77ZM135.95,462.87c29.82-17.78,65.29-2.75,84.65,23.3-11.73-32.48-58.87-50.34-84.65-23.3ZM103.35,595.09c-17.21,29.84-25.6,60.77-19.74,97.29,2.63-27.59,12.97-51.61,23.8-61.17-3.54-12.71-5.77-24.7-4.06-36.12ZM155.1,415.94c-4.43,6.28-9.67,11.99-15.54,16.95-4.31,3.64-9.49,8.24-8.21,13.73,8.55-10.67,22.05-17.2,35.72-17.28-8.07,4.88-16.03,9.94-23.89,15.15-4.3,2.85-9.04,6.61-8.98,11.77,13.28-11.99,33.51-15.66,50.16-9.09-3.01-5-7.84-8.88-13.36-10.75,6.27-2.02,13.39-1.25,19.08,2.06-7.38-4.9-13.1-12.25-16.04-20.6,3.93,6.88,11.16,11.77,19.01,12.85,4.06-13.19,3.14-27.86-2.55-40.44,5.95,5.13,10.08,12.32,11.54,20.04,1.9-5.61.7-11.9-1.94-17.2-2.64-5.3-6.62-9.8-10.54-14.24,9.73,6.37,17.99,14.98,23.94,24.97.28-6.58-2.37-13.01-6.19-18.38-3.81-5.37-8.75-9.82-13.65-14.22,12.95,7.07,24.16,17.28,32.41,29.52.33-7.08-3.61-13.65-8.02-19.19-4.42-5.55-9.54-10.72-12.34-17.23,11.45,11.25,22.26,23.15,32.37,35.61-3.75-14.63-16.28-25.01-25.04-37.3,14.71,9.13,27.65,21.1,37.91,35.04-4.26-20.71-21.88-38.01-42.66-41.89,8.53-2.01,17.3,2.1,24.46,7.14,12.25,8.62,22.54,20.81,26.17,35.34,1.76-6.19-.29-12.85-3.29-18.55-8.6-16.35-25.48-28.05-43.8-30.37,13.07-4.7,27.85,1.97,37.64,11.84,8.31,8.38,14.82,19.44,25.82,23.73-11.79-8.88-17.26-24.23-28.91-33.29-8.91-6.93-20.51-9.43-31.77-10.18,6.01-3.42,13.57-3.15,20.1-.88,6.53,2.27,12.27,6.33,17.9,10.33-6.35-5.37-12.42-11.06-18.19-17.04-2.32-2.41-3.44-4.98-5.66-7.48-10.76,4.08-22.4,5.14-33.56,7.96-11.16,2.81-22.5,7.91-28.78,17.55,7.09-5.66,15.76-9.3,24.76-10.41-5.54,4.96-12.46,8.02-18.85,11.82-6.39,3.8-12.59,8.77-15.13,15.76,5.22-6.07,12.37-10.45,20.16-12.33-5.68,10.02-19.8,13.13-24.81,23.5,7.73-4.75,15.46-9.49,23.2-14.24-3.18,5.49-7.71,10.18-13.07,13.57-5.24,3.31-11.8,5.98-13.77,11.85,8.07-5.78,16.74-10.72,25.83-14.7-4.4,6.21-10.17,11.44-16.77,15.22-2.52,1.44-5.2,2.72-7.22,4.8-4.39,4.53-4.53,11.58-7.08,17.35-3.53,8.01-11.88,14-12.5,22.73,4.85-9.73,13.66-17.42,23.95-20.92ZM235.52,441.05c2.71.11,5.44.9,8.14,1.36-1.62-.92-3.31-1.79-5.07-2.55-15.97-6.07-25.95,8.4-24.52,23.09,2.38-10.94,8.23-23.82,21.45-21.9ZM209.19,462.13c-.19-6.83,2.31-13.69,6.84-18.8,7.92-10.09,26.59-12.7,34.16-1.23.61-22.83-36.32-25.63-40.96-4,2.63-22.04,35.04-25.79,42.62-4.92-6.35-33.18-52.65-16.56-47.24,13.44-2.92-4.11-4.3-9.28-3.83-14.29-3.95,7.42-.46,16.34,4.71,22.27-6.53-3.22-12.8-6.96-18.72-11.19,6.19,7.56,14.36,13.19,22.41,18.72ZM776.25,796.39c-5.61,9.02-19.96,6.6-28.23,13.26,11.16-1.8,22.32-3.6,33.48-5.41-9.29,7.02-20.26,11.8-31.73,13.83,11.99,2.44,24.85.34,35.45-5.79,1.12-.65,2.25-1.38,2.93-2.47.78-1.26.86-2.81.87-4.29.02-5.92-.81-11.84-2.47-17.52-2.01-6.9-5.2-13.38-8.07-19.97-5.73-13.15-10.23-26.84-13.41-40.83-2.51-11.04-3.15-18.5-17.09-17.08-5.45.56-10.91,1.11-16.36,1.67,8.06-6.38,18.98-9.02,29.06-7.01-2.84-4.53-8.96-5.59-14.31-5.5-21.88.34-43.14,13.15-53.68,32.33,8.04-10.23,19.95-17.33,32.77-19.53-11.76,5.99-21.6,15.68-27.76,27.35,6.98-6.54,14.11-13.1,22.54-17.63s18.4-6.91,27.67-4.56c-17.16,3.59-33.22,12.29-45.61,24.7,14.21-9.05,29.52-18.43,46.37-18.11-13.69,4.12-26.45,11.3-37.07,20.87,12.97-6.83,26.57-13.82,41.22-14-13.4,4-25.79,11.32-35.75,21.13,11.62-8.68,25.46-14.37,39.82-16.38-8.29,12.31-28.2,11.56-37.01,23.5,13.39-5.52,27.24-9.9,41.37-13.08-1.33,3.33-4.59,5.54-7.98,6.71-3.39,1.17-7,1.5-10.5,2.26-7.4,1.62-14.35,5.27-19.88,10.45,12.94-5.39,26.81-8.53,40.81-9.24l-33.12,17.22c12.03-4.49,24.53-7.74,37.22-9.67-11.39,5.48-22.38,11.81-32.82,18.94,11.27-5.23,23.5-8.39,35.9-9.27-4.09,1.53-8.19,3.05-12.28,4.58-7.84,2.92-15.95,6.02-21.75,12.04,12.03-5.64,24.93-9.42,38.11-11.16-11.43,8.59-27.12,10.48-37.66,20.14,12.58-3.93,25.16-7.85,37.74-11.78-10.27,6.44-21.37,11.54-32.94,15.13,11.59-.31,23.14-2.27,34.18-5.81ZM760.98,908.53c-.66-2.2-1.38-4.44-2.76-6.28-1.32-1.75-4.32-3.89-6.67-3.47-2.72.49-4.59,4.22-5.28,6.57-.85,2.9-.82,5.97-.79,8.99,0,.29,0,.59.14.85.11.23.31.4.51.56,2.15,1.74,4.95,2.64,7.7,2.48,2.76-.16,5.44-1.37,7.38-3.33.42-.43.83-.93.93-1.53.08-.48-.05-.97-.18-1.43-.31-1.14-.64-2.27-.97-3.4ZM787.11,902.78c-.98-2.04-2.77-3.55-4.53-4.96-.77-.62-1.57-1.24-2.49-1.59s-2.01-.41-2.87.08c-1.26.72-2.38,1.16-3.34,2.25-1.93,2.2-2.96,5.07-3.31,7.98-.35,2.9-.02,6.03.47,8.91,1.44.65,2.87,1.29,4.31,1.94.68.31,1.37.62,2.11.79.9.21,1.83.19,2.76.17,1.17-.02,2.39-.06,3.42-.61.62-.33,1.13-.83,1.64-1.33,1.37-1.34,2.36-2.85,3.73-4.2-.24-1.63-.48-3.26-.73-4.89-.23-1.55-.47-3.14-1.15-4.55ZM802.06,894.11c-1.51-.78-3.3-1.44-4.87-.79-1.25,2.32-2.34,5.04-2.39,7.68-.05,2.7.44,5.52,1.03,8.15,3.53.11,7.3.15,10.26-1.77,1.41-.92,2.6-2.08,3.28-3.62-.95-2.67-1.96-5.44-4-7.41-.96-.93-2.12-1.63-3.3-2.25ZM749.72,825.48c9.68,7.93,39.02,3.56,39.72-11.68-4.19,4.39-11.54,8.11-18.53,9.81-7.65,1.86-14.59,1.89-21.19,1.87ZM789.44,824.11c-4.19,4.39-9.04,7.77-16.03,9.47-7.65,1.86-15.56,1.1-20.72.17,6.68,8.63,36.04,5.6,36.75-9.64ZM773.66,842.29c-7.56,1.51-15.27.45-20.27-.67,6.19,8.71,35.03,6.93,36.33-7.95-4.27,4.13-9.16,7.24-16.06,8.62ZM754.3,850.75c4.92,8.72,30.26,9.32,33.28-5.58-5.88,5.87-15.6,9.47-33.28,5.58ZM786.19,853.73c-5.31,5.3-14.1,8.55-30.07,5.04,4.45,7.88,27.34,8.42,30.07-5.04ZM785.97,860.92c-5.31,5.3-14.1,8.55-30.07,5.04,4.45,7.88,27.34,8.42,30.07-5.04ZM787.57,868.36c-5.31,5.3-17.82,9.03-35.65.91,6.6,10.74,32.92,12.55,35.65-.91ZM773.6,884.37c5.95-.63,11.66-3.29,15.96-7.44-7.03,4.07-15.81,4.54-23.82,3.78-6.41-.92-12.23-4.38-16.64-9.01,3.95,6.57,11.68,10.4,18.67,13.01-7.38-.85-14.52-3.71-20.46-8.19,2.82,5.47,8.77,8.21,14.29,10.25-5.23-1.06-12.07-3.25-16.87-.07,6.79-.25,13.43,1.72,19.42,4.71,7.78-6.09,19.48-1.66,26.24-9.45-5.26,2.26-11.13,3.1-16.81,2.42ZM758.44,694.38c-17.59-13.36-52.6-2.71-69.35,27.57,24.14-23.71,47.1-30.65,69.35-27.57ZM757.26,684.4c-17.59-13.36-52.6-2.71-69.35,27.57,24.14-23.71,47.1-30.65,69.35-27.57ZM756.41,673.78c-18.88-14.34-56.45-2.9-74.42,29.59,25.91-25.44,50.55-32.89,74.42-29.59ZM754.72,662.79c-18.88-14.34-56.45-2.9-74.42,29.59,25.91-25.44,50.55-32.89,74.42-29.59ZM753.7,654.38c-16.75-14.3-48.38-11.29-63.77,16.83,20.3-19.45,44.32-24.02,63.77-16.83ZM759.12,596.27c-21.05-8.23-38.16-21.36-49.56-41.61,0,32.31,35.56,45.18,49.56,41.61ZM706.51,573.94c1.18,29.6,36.54,38.57,47.19,31.29-18.44-4.38-35.8-11.04-47.19-31.29ZM749.64,615.54c-16.41-.66-37.83-9.33-49.22-29.58,5.24,29.77,38.57,36.86,49.22,29.58ZM746.18,624.84c-17.54.88-40.45-6.36-50.83-27.99,5.67,31.89,36.2,34.62,50.83,27.99ZM689.94,653.61c14.88-9.3,26.77-17.16,58.16-12.66-11.06-5.74-24.08-7-35.05-13.13-8.65-4.43-16.34-11.01-21.82-19.02,3.55,12.79,15.58,22.27,27.38,27.1-10.22,2.89-22.76,7.19-28.68,17.71ZM721.31,482.12c-.31,2.03-.62,4.06-.95,6.07,19.99-12.09,38.2-27.58,52.92-44.83-3.43,4.38-38.35,29.38-51.42,38.38-.18.13-.37.25-.55.38ZM723.29,467.95c-.43,3.31-.88,6.65-1.36,9.99,14.76-12.49,31.2-23.12,44.61-37.07-12.73,11.25-27.98,19.18-43.07,26.99-.06.03-.12.06-.18.09ZM725.48,449.35c-.22,2.07-.46,4.19-.7,6.35,12.31-6.79,24.45-13.95,35.06-23.13-11.18,6.13-22.65,11.72-34.36,16.77ZM723.62,465.37c10.47-6.18,20.59-12.96,30.27-20.31-9.58,5.07-19.42,9.64-29.47,13.71-.26,2.17-.52,4.37-.8,6.6ZM770.49,536.9c-3.52,3.19-7.36,6.39-12.02,7.33,11.95-11.74,22.44-24.96,31.14-39.28-9.37,11.92-21.03,22.04-34.16,29.62,11.76-10.52,21.8-22.96,29.59-36.68-5.23,4.97-10.47,9.94-15.73,14.87-5.18,4.86-10.52,9.77-17.02,12.63,10.9-10.46,20.66-22.11,29.04-34.68-9.82,10.69-21.14,20.01-33.51,27.61,12.54-11.22,22.92-24.61,33.13-37.98-7.85,7.79-16.29,14.99-25.23,21.51-4.14,3.02-8.5,5.95-13.45,7.25,11.16-13.73,26.95-23.51,36.37-38.49-10.62,9.43-21.24,18.87-31.86,28.3-2.38,2.11-6.57,4.09-9.66,4.83,10.8-15.15,27.86-26.34,38.9-41.32-16.91,12.05-27.11,26.78-45.92,34.38,8.44-8.99,15.71-15.21,24.55-23.81,5.38-5.23,11.18-10.35,15.45-16.51-8.55,6.78-17.55,13.68-26.01,20.57-7.16,5.83-15.23,10.92-24.09,13.24-1.72,10.25-3.71,20.06-5.99,28.36,10,12.03,21.31,22.97,33.69,32.53,4.4,3.4,9.5,6.78,15.02,6.19,4.46-.48,8.21-3.47,11.4-6.62,5.78-5.7,10.65-12.33,14.36-19.56-6.98,7.56-15.06,14.1-23.92,19.35,10.4-10.07,21.1-20.6,26.22-34.14-6.39,7.2-13.17,14.04-20.31,20.5ZM726.22,442.18c11.23-11.9,26.23-20.26,42.34-23.25-14.42,2.62-28.45,7.41-41.47,14.14-.26,2.83-.55,5.88-.87,9.1ZM727.55,427.86c3.77-3.01,8.31-5.28,12.75-7.23,6.3-2.76,12.73-5.24,19.26-7.41-11.26.67-21.7,5.6-31.7,10.99-.09,1.14-.2,2.36-.31,3.65ZM922.04,863.64c.02,4.06,1.25,6.85,4.27,9.57,1.04-3.9-.68-7.73-4.27-9.57ZM917.17,879.97c2.89-3.18,3.14-7.82.66-11.31-1.7,3.97-1.9,7.17-.66,11.31ZM905.97,882.04c4.38-2.2,6.79-7.17,5.84-11.97-3.17,3.78-4.83,7.13-5.84,11.97ZM894.83,878.95c5.59,1.56,10.45-4.33,11.07-9.45-4.59,3-6.44,6.52-11.07,9.45ZM900.54,863.11c-4.18,2.35-6.55,3.71-10.63,6.23,4.41,2.06,10.27-1.39,10.63-6.23ZM898.02,857.35c-6.17,2.61-11.01,4.01-17.6,5.18,5.87,3.34,14.47.79,17.6-5.18ZM896.05,851.67c-6.41,1.41-11.33,2.3-17.82,3.27,5.61,3.4,13.78,1.89,17.82-3.27ZM896.28,846.24c-6.86-.45-12.32,1.12-19.16,1.13,5.65,4.21,13.67,2.51,19.16-1.13ZM877.7,837.71c5.39,3.42,12.32,3.81,18.07,1.08-6.25-1.46-11.7-1.8-18.07-1.08ZM897.99,831.41c-7.55-.78-13.77-1.56-21.28-2.62,5.64,5.02,14.59,6.11,21.28,2.62ZM899.79,823.26c-7.61-.76-14.02-1.31-21.65-1.83,6.08,4.57,14.89,5.29,21.65,1.83ZM878.09,812.33c5.29,7.3,15.6,4.26,23.1,3.32-7.45-3.39-15.56.13-23.1-3.32ZM877.26,804.55c6.64,6.82,17.71,6.58,26.2,3.9-9.09-1.62-17.37-.94-26.2-3.9ZM879.12,792.41c3.9,10.11,17.78,9.94,26.58,7.6-9.33-2.2-19.13-.64-26.58-7.6ZM880.47,788.69c7.47,7.01,19.31,6.55,28.45,3.51-9.86-1.24-18.89-.41-28.45-3.51ZM883.25,780.06c7.68,6.54,19.42,8.36,28.74,4.51-10.11-.44-18.97-1.85-28.74-4.51ZM888.93,771.74c6.34,8.12,18.56,7.45,27.59,5.25-9.51-2.15-18.68-.83-27.59-5.25ZM892.16,764.94c7.02,5.63,17.46,6.96,25.67,3.3-9.01-.61-16.79-1.63-25.67-3.3ZM894.43,757.7c8.27,5.59,19.85,6.38,28.81,2-10.03.16-18.91-.47-28.81-2ZM897.19,746.32c7.56,6.48,19.06,8.43,28.33,4.83-9.97-.71-18.69-2.21-28.33-4.83ZM928.77,741.74c-10.22-1.09-19.68,0-29.37-4.03,7.35,7.86,19.96,7.25,29.37,4.03ZM929.62,733.36c-10.39-1.07-20.22.06-29.61-5.28,6.63,9,20.06,8.61,29.61,5.28ZM902.05,721.71c8.78,7.25,22.7,8.23,32.42,2.31-11.24,1.7-21.53.95-32.42-2.31ZM938.23,716.39c-11.38-1.35-22.28-.5-32.66-6.08,7.77,9.27,21.95,9.1,32.66,6.08ZM942.21,706.49c-12.06-.21-23.04-1.7-34.73-4.64,9.84,6.9,23.43,8.7,34.73,4.64ZM945.84,698.9c-13.55-.89-26.24-2.33-39.65-4.44,12.03,6.17,26.55,7.78,39.65,4.44ZM907.11,686.77c12.54,7.42,28.67,7.98,42.34,3.56-14.49.19-28.18-.19-42.34-3.56ZM949.03,681.63c-12.67-1.09-24.66,0-37.16-2.78,10.99,6.85,25.1,5.92,37.16,2.78ZM929.75,669.06c.3.35.59.7.89,1.05.74.86,1.94,2.45,3.28,4.04,6.74.43,13.47-.54,19.61-3.54-8.06.13-15.91-.76-23.78-1.55ZM925.18,663.46c9.92,1.24,20.06.79,29.7-1.81-11.07-1.43-22.1-2.55-33.19-2.71,1.14,1.52,2.3,3.03,3.49,4.52ZM915.15,649.69c.56.85,1.13,1.69,1.71,2.52,13.83,2.66,28.07,3.15,42.07,1.49-14.27-3.67-29.1-5.04-43.78-4.01ZM958.46,643.25c-15.01-5.5-31.87-6.32-47.33-2.23,15.75,2.23,31.45,2.95,47.33,2.23ZM908.87,631.01c17.22,2.47,34.44,3.29,51.82,2.57-16.57-5.49-34.78-6.41-51.82-2.57ZM905.71,622.03c18.51,2.91,37.31,3.26,55.92,1.13-18.3-4.11-37.47-4.52-55.92-1.13ZM904.95,614.25c19.61-.21,39.9,1.2,59.45-.46-19.35-4.59-40.37-6.05-59.45.46ZM904.42,605.55c20.56-.97,40.75-1.5,61.33-1.55-19.77-6.22-41.91-5.69-61.33,1.55ZM907.01,597.6c19.93-4.54,39.91-1.8,60.1-2.31-19.26-5.8-42.08-8.4-60.1,2.31ZM966.17,584.83c-20.42-6.9-44.11-4.94-63.09,5.29,20.93-4.1,41.76-5.87,63.09-5.29ZM898.84,581.15c22.58-4.88,45.45-10.5,68.47-5.05-21.27-11.75-48.09-6-68.47,5.05ZM899.46,571.53c21.74-7.75,44.79-9.53,67.46-5.14-20.94-10.73-48.39-8.66-67.46,5.14ZM896.42,564.17c22.14-9.09,46-11.96,69.66-8.31-22.21-10.06-50.46-6.71-69.66,8.31ZM897.72,554.58c21.53-5.54,43.26-12.15,65.59-7.24-20.71-11.27-46.53-4.39-65.59,7.24ZM891.9,547.77c21.64-9.71,45.4-12.72,68.77-8.63-21.81-10.51-50.24-6.97-68.77,8.63ZM888.09,539.32c22.11-8.88,45.83-11.71,69.4-8.19-22.14-9.92-50.19-6.64-69.4,8.19ZM894.31,523.58c-3.76.96-8.13,2.59-11.71,3.42-5.58.87-12.18-1.99-18.16-1.63-2.15.11-4.32.75-6.01,1.99,3.96-1.63,8.01-.53,11.87.69,3.91,1.15,7.95,2.82,12.69,2.5,8.43-1.49,16.03-3.96,24.4-5.32,16.18-3.12,32.51-3.87,48.86-.88-19.55-8.27-41.91-6.25-61.95-.76ZM882.66,520.78c23.48-6.55,47.66-8.07,71.77-4.44-22.62-9.94-50.55-8.24-71.77,4.44ZM861.56,518.89c29.69-6.51,59.51-16.94,90.15-10.24-29.28-13.06-62.6-2.42-90.15,10.24ZM885.61,505c21.19-6.95,44.39-11.31,65.89-3.07-20.22-12.52-45.98-8.73-67.29-1.07-7.23,2.59-14.26,5.61-21.14,8.87-4.35,1.7-10.15,5.3-11.41,10.62-.42,1.79-.03,3.64.73,5.16-.47-1.66-.39-3.4.17-4.9,1.98-4.59,7.13-6.79,11.64-8.16,7.15-2.56,14.25-5.17,21.41-7.45ZM951.52,494.48c-23.93-16.68-57.49-8.82-79.56,7.47,25.1-10.25,53.26-17.83,79.56-7.47ZM879.92,493.68c19.1-14.61,45.86-15.02,67.68-6.57-18.89-14.88-52.98-13.68-67.68,6.57ZM888.23,478.79c19.59-5.49,39.18-6.65,58.44.67-16.09-13.38-41.71-12.41-58.44-.67ZM875.42,480.21c20.57-14.25,46.56-18.01,70.44-9.86-21.28-14.62-54-10.06-70.44,9.86ZM921.9,671.2c-17.38-15.03-32.57-36.85-37.61-90.05-5.97-6.95-12.06-6.07-18.27,1.8.32,41.9,15.88,73.41,55.88,88.25ZM883.74,569.63c-3.45-10.21-18.66-10.41-26.06-4.53,8.94-1.3,19.01-2.41,26.06,4.53ZM858.42,556.38c8.73-2.65,18.23-1,25.5,4.54-4.1-9.07-18.52-11.63-25.5-4.54ZM858.64,549.62c9.09-3.62,18.31-2.09,25.72,4.3-3.75-9.81-18.99-12.38-25.72-4.3ZM884.32,544.54c-4.89-9.45-21.15-11.94-27.24-2.36,8.98-5.36,18.95-3.37,27.24,2.36ZM856.99,535.84c4.67-3.16,8.48-2.08,13.83-3.04-3.91-3.66-12.99-3.25-13.83,3.04ZM831.98,414.59c-5.59,5.61-8.56,13.57-7.88,21.06,2.22-14.45,14.88-25.78,29.43-24.85,13.86.82,26.99,12.03,30.6,25.74-.64-24.97-33.78-40.84-52.15-21.95ZM818.66,451.43c-.73-4.64-.13-8.99.63-13.41,2.22-12.85,5.3-27.1,17.96-33.56-19.04,1.55-26.32,32.56-18.6,46.97ZM819.71,461.79c-1.82-3.74-3.5-7.35-4.8-11.03-4.05-11.07-3.97-23.11,1.52-33.77-13.97,11.2-10.14,34.71,3.28,44.8ZM830.46,476.67c-29.6-13.51-31.92-49.62-11.61-72.56-27.28,19.27-22.93,65.18,11.61,72.56ZM843.05,499.13c-8.73-18.87-34.32-22.6-41.88-42.38,3.71,21.86,29.95,26.45,41.88,42.38ZM842.95,506.33c-4.99-13.14-18.15-19.94-30.39-24.64,10.73,6.59,22.98,13.41,27.54,25.69,3.35,8.84.34,19.49,2.58,28.89.83,3.24,2.18,6.47,4.5,8.85-1.76-2.79-2.72-5.92-3.03-9.11-1.27-9.93,2.51-19.65-1.19-29.68ZM835.22,510.59c-4.99-18.01-31.44-19.53-33.53-38.92-.68,19.52,25.7,23.1,30.62,39.8,3.14,11.94-1.5,26.93,5.36,38.61,2.1,3.93,4.79,7.55,8.13,10.41-2.84-3.34-5.19-7.03-6.78-11.04-5.93-12.54-.29-25.37-3.81-38.86ZM825.6,509.53c-5.32-7.19-13.81-11.02-18.35-18.77,1.87,5.67,6.44,10,10.47,14.04,4.09,4.06,7.8,8.41,8.6,13.79.98,5.36-.18,11.24.54,17.28.69,6.03,3.43,11.73,7.53,15.92-3.16-4.93-4.9-10.53-5.16-16.11-.13-8.22,2.41-18.81-3.63-26.14ZM822.5,524.16c-3.28-8.67-9.37-14.96-15.01-21.96,3.38,7.83,9.26,15.05,12.1,22.85,1.28,3.71.58,8.27,1.71,12.77.97,4.44,3.04,8.59,5.9,11.95-1.87-4-3.03-8.17-3.56-12.35-.62-4.1.29-8.54-1.14-13.26ZM804.69,512.31c2.87,8.06,6.72,16.24,10.15,24,1.12,2.7,2.74,5.07,2.9,8.03,1.14-2.83.04-6.05-.67-8.85-2.46-8.47-6.43-16.58-12.38-23.19ZM840.16,453.41c1.2,7.07,9.69,13.73,16.33,9.08-7.56-.22-10.87-4.57-16.33-9.08ZM852.68,448.6c-2.62-1.52-7.71-.79-7.85,2.83,3.72-2.89,10.18.78,11,5.06,2.12-2.71-.38-6.67-3.14-7.89ZM837.74,460.38c.96,8,10.98,13.72,18.36,10.52-7.62-1.58-13.13-4.76-18.36-10.52ZM855.82,488.51c-3.67-11.32-20.99-10.18-23.87-21.9-.25-.94-.41-1.92-.51-2.9.16.33.31.66.49.98,4.23,8.78,14.87,9.93,21.86,15.66-4.02-4.32-9.49-7.42-14.39-10.35-4.34-3.55-6.56-9.08-7.68-14.64l-1.62-8.07s-1.31,8.14-1.31,8.14c-1.64,7.72.25,17.65,7.99,21.41,6.66,3.78,15.05,4.52,19.04,11.66ZM836.67,481.7c5.78,6.05,10.68,11.33,16.33,17.51-1.76-8.14-8.34-15.17-16.33-17.51ZM882.19,482.76c-9.6,5.19-17.15,13.29-22.87,22.49,8.83-6.42,15.98-14.08,22.87-22.49ZM859.35,496.32c5.32-4.74,9.46-9.14,13.82-14.77-6.76,2.08-12.18,7.9-13.82,14.77ZM859.72,486.17c19.36-26.05,54.82-41.08,84.65-23.3-25.78-27.04-72.92-9.17-84.65,23.3ZM976.98,595.09c1.71,11.42-.52,23.41-4.06,36.12,10.83,9.56,21.17,33.58,23.8,61.17,5.86-36.51-2.53-67.45-19.74-97.29ZM845.93,333.9c-5.77,5.98-11.84,11.67-18.19,17.04,5.64-4.01,11.37-8.07,17.9-10.33,6.53-2.27,14.09-2.54,20.1.88-11.26.75-22.86,3.25-31.77,10.18-11.65,9.06-17.12,24.41-28.91,33.29,10.99-4.3,17.5-15.35,25.82-23.73,9.78-9.87,24.56-16.54,37.64-11.84-18.32,2.32-35.2,14.02-43.8,30.37-3,5.7-5.05,12.36-3.29,18.55,3.63-14.53,13.92-26.72,26.17-35.34,7.16-5.04,15.94-9.15,24.46-7.14-20.78,3.88-38.4,21.18-42.66,41.89,10.26-13.94,23.21-25.91,37.91-35.04-8.77,12.29-21.3,22.68-25.04,37.3,10.11-12.47,20.92-24.36,32.37-35.61-2.8,6.52-7.92,11.69-12.34,17.23-4.42,5.55-8.35,12.11-8.02,19.19,8.25-12.23,19.46-22.44,32.41-29.52-4.89,4.4-9.83,8.85-13.65,14.22-3.81,5.37-6.47,11.8-6.19,18.38,5.95-9.99,14.21-18.6,23.94-24.97-3.93,4.43-7.9,8.93-10.54,14.24-2.64,5.3-3.84,11.59-1.94,17.2,1.45-7.72,5.59-14.91,11.54-20.04-5.69,12.58-6.61,27.25-2.55,40.44,7.85-1.08,15.08-5.97,19.01-12.85-2.95,8.35-8.67,15.7-16.04,20.6,5.7-3.31,12.81-4.08,19.08-2.06-5.53,1.87-10.35,5.75-13.36,10.75,16.65-6.57,36.88-2.91,50.16,9.09.06-5.16-4.68-8.92-8.98-11.77-7.86-5.21-15.82-10.26-23.89-15.15,13.67.09,27.17,6.61,35.72,17.28,1.29-5.49-3.9-10.09-8.21-13.73-5.87-4.96-11.11-10.67-15.54-16.95,10.3,3.5,19.1,11.19,23.95,20.92-.62-8.73-8.97-14.73-12.5-22.73-2.54-5.77-2.69-12.82-7.08-17.35-2.02-2.09-4.71-3.36-7.22-4.8-6.6-3.79-12.37-9.02-16.77-15.22,9.09,3.98,17.76,8.91,25.83,14.7-1.97-5.88-8.53-8.54-13.77-11.85-5.36-3.38-9.89-8.08-13.07-13.57,7.73,4.75,15.46,9.49,23.2,14.24-5.01-10.37-19.13-13.48-24.81-23.5,7.78,1.88,14.94,6.26,20.16,12.33-2.54-6.98-8.74-11.96-15.13-15.76-6.39-3.8-13.31-6.86-18.85-11.82,9,1.11,17.67,4.75,24.76,10.41-6.28-9.64-17.62-14.74-28.78-17.55-11.16-2.81-22.8-3.88-33.56-7.96-2.22,2.5-3.34,5.07-5.66,7.48ZM866.25,462.95c1.38-14.74-8.47-29.13-24.52-23.09-1.75.76-3.44,1.63-5.07,2.55,2.71-.46,5.43-1.25,8.14-1.36,13.22-1.91,19.07,10.96,21.45,21.9ZM879.54,432.33c.47,5.02-.91,10.18-3.83,14.29,5.41-29.99-40.89-46.62-47.24-13.44,7.58-20.87,39.99-17.13,42.62,4.92-4.63-21.63-41.57-18.83-40.96,4,7.57-11.47,26.24-8.86,34.16,1.23,4.54,5.11,7.04,11.97,6.84,18.8,8.05-5.53,16.22-11.16,22.41-18.72-5.93,4.23-12.19,7.97-18.72,11.19,5.17-5.93,8.66-14.85,4.71-22.27Z"/>
</svg>